<?xml version="1.0" standalone="no"?>
<!DOCTYPE svg PUBLIC "-//W3C//DTD SVG 1.1//EN" "http://www.w3.org/Graphics/SVG/1.1/DTD/svg11.dtd" >
<svg xmlns="http://www.w3.org/2000/svg">
<metadata></metadata>
<defs>
<font id="europe_undergroundregular" horiz-adv-x="1228" >
<font-face units-per-em="2048" ascent="1536" descent="-512" />
<missing-glyph horiz-adv-x="1024" />
<glyph horiz-adv-x="0" />
<glyph unicode="&#xd;" horiz-adv-x="1024" />
<glyph unicode=" "  horiz-adv-x="1024" />
<glyph unicode="&#x09;" horiz-adv-x="1024" />
<glyph unicode="&#xa0;" horiz-adv-x="1024" />
<glyph unicode="!" horiz-adv-x="350" d="M0 12v271h246v-271h-246zM0 459v1290h246v-1290h-246z" />
<glyph unicode="&#x22;" horiz-adv-x="659" d="M47 1229v444h246v-444h-246zM354 1229v444h246v-444h-246z" />
<glyph unicode="#" horiz-adv-x="1312" d="M-4 1051v245h221v488h246v-488h401v496h246v-496h197v-245h-197v-287h172v-246h-172v-512h-246v512h-401v-504h-246v504h-197v246h197v287h-221zM463 764h401v287h-401v-287z" />
<glyph unicode="$" horiz-adv-x="1376" d="M-8 1251q0 123 44 220.5t127 166t201.5 105.5t266.5 37q131 0 248 -49q111 -45 200 -136q88 -88 138 -202q49 -117 49 -246h-246q0 80 -31 150.5t-83 123t-123.5 83t-151.5 30.5q-92 0 -167 -18.5t-126 -53.5q-100 -70 -100 -211q0 -6 1 -16t10 -25.5t29.5 -34 t57.5 -38.5q61 -37 147 -70t176 -63q102 -35 203 -73t185 -87q223 -137 223 -346q0 -131 -56 -236q-53 -98 -151 -162q-82 -55 -203 -84q-104 -24 -229 -24q-129 0 -246 49q-117 51 -201 137q-86 84 -137 201q-49 117 -49 246h246q0 -80 30.5 -151t83 -123t123 -82.5 t150.5 -30.5q195 0 297 67q96 63 96 193q0 8 -2 20t-11.5 29.5t-32 39t-60.5 46.5q-66 41 -156 73.5t-182 65.5q-98 35 -194.5 71t-176.5 83q-98 59 -148 127q-70 92 -69 198zM504 -150v2098h246v-2098h-246z" />
<glyph unicode="&#x26;" horiz-adv-x="1202" d="M0 557q0 139 61 242q33 53 84 98q-23 23 -43 48.5t-36 53.5q-23 39 -36.5 77t-19.5 69t-8 51.5t-2 24.5v2q0 113 42 214t120 179q80 80 181 122t212 42q113 0 214 -42t179 -122q80 -78 122 -179.5t42 -213.5h-246q0 63 -24.5 120.5t-66.5 99.5t-99.5 66.5t-120.5 24.5 t-119.5 -24.5t-98.5 -65.5t-66.5 -97.5t-24.5 -119.5q0 -8 6 -41t29 -70q59 -96 211 -96h294h353v-246h-27v-217q0 -111 -42 -212t-122 -181q-78 -78 -179 -120t-214 -42q-111 0 -212 42t-181 120q-78 80 -120 181t-42 212zM246 557q0 -63 24.5 -119.5t66.5 -98.5 t98.5 -66.5t119.5 -24.5t120.5 24.5t99.5 66.5t66.5 98.5t24.5 119.5v217h-364q-4 0 -8.5 -1t-8.5 -1q-127 -14 -183 -64.5t-56 -150.5z" />
<glyph unicode="'" horiz-adv-x="344" d="M47 1147v444h246v-444h-246z" />
<glyph unicode="(" horiz-adv-x="503" d="M-4 897q0 170 26.5 323.5t77.5 276.5q41 100 89.5 159.5t94.5 92.5t88 43t72 10v-246q-16 0 -49 -33.5t-67 -119.5q-41 -98 -63.5 -230.5t-22.5 -275.5q0 -141 22.5 -273t63.5 -231q35 -86 67.5 -119.5t48.5 -33.5v-246q-31 0 -72.5 10t-87.5 42t-94.5 92.5t-89.5 160.5 q-51 123 -77.5 276.5t-26.5 321.5z" />
<glyph unicode=")" horiz-adv-x="489" d="M-20 -6v246q16 0 48.5 33.5t67.5 119.5q41 98 63.5 230.5t22.5 273.5q0 143 -22.5 275.5t-63.5 230.5q-35 86 -67.5 119.5t-48.5 33.5v246q31 0 72.5 -10t87.5 -43t94.5 -92.5t89.5 -159.5q51 -123 77.5 -276.5t26.5 -323.5q0 -168 -26.5 -321.5t-77.5 -276.5 q-41 -100 -89.5 -160.5t-94.5 -92.5t-87.5 -42t-72.5 -10z" />
<glyph unicode="*" horiz-adv-x="942" d="M57 965l203 149l-203 150l146 196l141 -102v196h246v-196l141 102l146 -196l-203 -150l203 -149l-146 -199l-141 104v-176h-246v176l-141 -104z" />
<glyph unicode="+" horiz-adv-x="829" d="M102 768v246h201v172h246v-172h201v-246h-201v-156h-246v156h-201z" />
<glyph unicode="," horiz-adv-x="401" d="M-53 -63l98 73q16 12 24.5 30.5t12.5 35.5q4 20 4 43v-2l246 14q0 -6 -1 -38t-12 -75q-29 -131 -126 -204l-99 -74z" />
<glyph unicode="-" horiz-adv-x="759" d="M74 653v246h622v-246h-622z" />
<glyph unicode="." horiz-adv-x="352" d="M37 -2v287h246v-287h-246z" />
<glyph unicode="/" horiz-adv-x="862" d="M72 0l448 1796h260l-448 -1796h-260z" />
<glyph unicode="0" horiz-adv-x="1404" d="M2 897q0 174 45 333t131 283q86 129 205 201q125 80 268 80t271 -80q119 -72 204 -201q86 -125 131.5 -283.5t45.5 -332.5t-45.5 -331.5t-131.5 -282.5q-86 -129 -204 -201q-128 -80 -271 -80t-268 80q-119 72 -205 201q-86 125 -131 282.5t-45 331.5zM248 897 q0 -133 31.5 -251t87 -206t129 -140t155.5 -52t156 52t129 140t88 206t33 251t-33 251t-88 207t-129 141t-156 52t-155.5 -52t-129 -141t-87 -207t-31.5 -251z" />
<glyph unicode="1" horiz-adv-x="536" d="M-8 1386l223 402h195v-1780h-246v1282z" />
<glyph unicode="2" horiz-adv-x="1366" d="M2 2l14 137q2 10 19.5 80t79.5 168q74 117 180 207q129 113 313 188l2 2q92 35 185.5 78t152.5 94q47 41 66.5 85t19.5 104q0 66 -30.5 135.5t-85.5 126.5q-57 61 -128 94t-145 33q-80 0 -150.5 -30.5t-123 -83t-83 -124t-30.5 -151.5h-246q0 131 49 248q51 117 138 200 q84 86 200 138q117 49 246 49q135 0 252 -58q113 -53 199 -145q88 -92 136 -204.5t48 -227.5q0 -227 -170 -373q-80 -70 -188.5 -121t-221.5 -96q-250 -104 -370 -287q-4 -4 -6 -10t-7 -10h957v-246h-1272z" />
<glyph unicode="3" horiz-adv-x="1216" d="M0 565h246q0 -63 24.5 -119.5t66.5 -98.5t98.5 -66.5t119.5 -24.5t120.5 24.5t99.5 65.5t66.5 97.5t24.5 119.5q0 6 -7 40t-30 71q-57 96 -208 96h-297l211 209q23 25 48 31t44 8q127 14 183 64.5t56 148.5q0 63 -24.5 120.5t-66.5 99.5t-99.5 66.5t-120.5 24.5 t-119.5 -24.5t-98.5 -66.5t-66.5 -99.5t-24.5 -120.5h-246q0 113 42 214t120 179q80 80 181 122t212 42q113 0 214 -42t179 -122q80 -78 122 -179.5t42 -213.5q0 -139 -61 -240q-33 -53 -84 -98q45 -41 80 -102q23 -41 36 -79t19 -69t8 -50.5t2 -23.5v-4q0 -111 -42 -212 t-122 -181q-78 -78 -179 -120t-214 -42q-111 0 -212 42t-181 120q-78 80 -120 181.5t-42 211.5z" />
<glyph unicode="4" horiz-adv-x="1089" d="M2 748v1005h246v-760h457v760h245v-1751h-245v746h-703z" />
<glyph unicode="5" horiz-adv-x="1249" d="M-2 639h246q0 -80 30.5 -150.5t83 -123t123 -83t150.5 -30.5t151.5 30.5t123.5 83t83 123t31 150.5t-31 151.5t-83 124t-123.5 83t-151.5 30.5h-598l266 762h793v-246h-617l-96 -270h252q131 0 248 -49q117 -51 200 -138q86 -84 138 -200q49 -117 49 -248 q0 -129 -49 -246q-51 -117 -138 -200q-84 -86 -200 -138q-117 -49 -248 -49q-129 0 -246 49q-117 51 -201 138q-86 84 -137 200q-49 117 -49 246z" />
<glyph unicode="6" horiz-adv-x="1372" d="M-4 672q0 481 147 762q43 82 92.5 139t99.5 96t98 60.5t89 33.5q86 25 177.5 19t177.5 -41q82 -35 146 -89.5t105 -121.5l-210 -127q-18 33 -53.5 62.5t-80.5 48t-95 22.5t-101 -10q-137 -37 -226 -205q-16 -33 -31.5 -67.5t-27.5 -75.5q37 23 84 43q117 49 246 49 q131 0 248 -49q117 -51 200 -138q87 -83 138 -200q49 -117 49 -248q0 -129 -49 -246q-51 -117 -138 -201q-84 -86 -200 -137q-117 -49 -248 -49q-129 0 -246 49q-117 51 -201 137q-86 84 -137 201q-49 117 -49 246v37h-4zM246 635q0 -80 30.5 -150.5t83 -123t123 -83 t150.5 -30.5t151.5 30.5t124 83t83 123t30.5 150.5t-30.5 151.5t-83 124t-124 83t-151.5 30.5t-150.5 -30.5t-123 -83t-83 -124t-30.5 -151.5z" />
<glyph unicode="7" horiz-adv-x="1161" d="M-4 1518v245h1063l-592 -1771h-260l270 805h-235v245h317l160 476h-723z" />
<glyph unicode="8" horiz-adv-x="1110" d="M-6 516q0 104 39 198.5t112 166.5q16 20 33 30l-24 25q-72 72 -110 163t-38 191q0 102 38 193.5t110 163.5t163 109.5t191 37.5q102 0 193.5 -38t162.5 -109q72 -72 110 -163t38 -194q0 -100 -38 -191t-110 -163l-24 -25q8 -6 16 -13t16 -17q74 -72 113 -166t39 -199 q0 -104 -39 -197.5t-113 -164.5q-72 -74 -166 -113t-198 -39t-197.5 39t-165.5 113q-74 72 -112.5 165t-38.5 197zM240 516q0 -55 21.5 -104.5t57 -85t85 -57t104.5 -21.5t104.5 21.5t86 57t58 85t21.5 104.5t-21.5 104.5t-58 86t-86 58t-104.5 21.5t-104.5 -21.5t-85 -58 t-57 -86t-21.5 -104.5zM252 1290q0 -53 20.5 -99t55 -81t81 -55.5t99.5 -20.5t100 20.5t82 55.5t55.5 81t20.5 99t-20.5 100.5t-55.5 82t-82 55t-100 20.5t-99.5 -20.5t-81 -55t-55 -82t-20.5 -100.5z" />
<glyph unicode="9" horiz-adv-x="1361" d="M-2 1151q0 129 49 246q49 115 137 202q90 90 201 136q117 49 246 49q131 0 248 -49q111 -45 200 -136q88 -88 138 -202q49 -117 49 -246v-18.5t-2 -18.5h6q0 -479 -148 -762q-43 -82 -92 -139t-99 -95t-98.5 -60.5t-89.5 -34.5q-68 -18 -141 -19q-113 0 -213 43 q-82 35 -147.5 88t-106.5 123l211 125q20 -33 55 -61.5t79 -47t95.5 -23.5t102.5 9q139 37 225 207q16 31 31.5 66.5t26.5 76.5q-43 -27 -82 -43q-121 -51 -248 -51q-125 0 -246 51q-57 23 -107.5 57.5t-93.5 77.5q-86 86 -137 201q-49 119 -49 248zM244 1151 q0 -80 30.5 -151.5t83 -124t123 -83t150.5 -30.5t151.5 30.5t123.5 83t83 124t31 151.5t-31 150.5t-83 123t-123.5 83t-151.5 30.5t-150.5 -30.5t-123 -83t-83 -123t-30.5 -150.5z" />
<glyph unicode=":" horiz-adv-x="403" d="M37 -2v287h246v-287h-246zM37 1001v287h246v-287h-246z" />
<glyph unicode=";" horiz-adv-x="444" d="M-74 -76l99 74q16 12 24 30.5t12 34.5q4 20 5 43v-2l245 15q0 -6 -1 -38t-11 -75q-29 -131 -127 -205l-98 -73zM66 1001v287h245v-287h-245z" />
<glyph unicode="&#x3c;" horiz-adv-x="851" d="M82 756l686 467v-297l-250 -170l250 -170v-297z" />
<glyph unicode="=" horiz-adv-x="794" d="M74 653v246h622v-246h-622zM74 961v245h622v-245h-622z" />
<glyph unicode="&#x3e;" horiz-adv-x="827" d="M84 285v297l250 170l-250 170v297l686 -467z" />
<glyph unicode="?" horiz-adv-x="1329" d="M4 1118q0 129 49 246q49 115 137 203q86 86 201 135q117 49 248 49t246 -51q57 -23 107 -57.5t95 -77.5q87 -90 136 -203q49 -117 49 -244q0 -102 -33 -182q-16 -37 -37.5 -72t-50.5 -65q-47 -53 -105.5 -92t-111.5 -72q-47 -29 -82 -52.5t-56.5 -45t-31.5 -45t-10 -52.5 h-246q0 152 108 267q41 43 91.5 75.5t99.5 63.5q51 31 92 58.5t69.5 58t43 68.5t14.5 87q0 80 -30.5 149.5t-84 123t-124 84t-148.5 30.5q-80 0 -151.5 -30.5t-124 -83t-83 -123t-30.5 -150.5h-246zM516 2v270h246v-270h-246z" />
<glyph unicode="@" horiz-adv-x="1480" d="M10 776q0 154 51.5 295t149.5 252q94 109 223 172q137 63 279 64q150 0 284 -74q123 -68 222 -185q47 -53 82.5 -116t62.5 -129q53 -141 53 -279q0 -78 -18.5 -146.5t-55.5 -121.5q-41 -59 -95 -92t-115 -33q-47 0 -93.5 21.5t-81.5 68.5q-51 -43 -113.5 -66.5 t-133.5 -23.5q-80 0 -149.5 29.5t-122 82t-82 122t-29.5 149.5t29.5 149.5t82 122t122 83t149.5 30.5t149.5 -30.5t121.5 -83t83 -122t31 -149.5q0 -14 -1 -28.5t-3 -28.5h47q0 -39 6 -60q10 16 18 48t8 79q0 92 -37.5 190.5t-103.5 178.5q-20 23 -51 52.5t-71 55t-89 43 t-106 17.5q-94 0 -177 -42t-145.5 -116t-98.5 -171t-36 -208t35 -208t96.5 -169.5t143 -115.5t176.5 -45q10 2 37.5 8t62.5 21.5t74 41t71 66.5l193 -154q-102 -127 -271 -190q-59 -23 -102 -30t-47 -7l-6 -2h-6q-143 0 -279 65q-127 59 -223 170q-98 111 -149.5 252.5 t-51.5 296.5zM573 766q0 -57 40.5 -97t97.5 -40q59 0 99 40t40 97q0 59 -40 99t-99 40q-57 0 -97.5 -40t-40.5 -99z" />
<glyph unicode="A" horiz-adv-x="1642" d="M2 -6l723 1782h170l725 -1782h-264l-211 518h-668l-211 -518h-264zM578 758h466l-233 575z" />
<glyph unicode="B" horiz-adv-x="1159" d="M0 -8v1790l512 -6q90 0 170 -34t139.5 -93.5t93 -139t33.5 -170.5q0 -86 -31.5 -160.5t-85.5 -134.5q39 -29 74 -61q84 -84 127 -189.5t43 -222.5t-43 -221t-127 -188q-82 -84 -187 -127t-222 -43h-496zM246 238h250q70 0 130 26.5t105 71.5t71.5 105.5t26.5 129.5 q0 66 -23.5 124.5t-64.5 102.5t-95 72.5t-118 34.5h-16v2h-16h-250v-669zM246 1153h250h16t18 -2q72 8 122 61.5t50 126.5q0 39 -15 74t-40.5 60.5t-60.5 41t-74 15.5l-266 2v-379z" />
<glyph unicode="C" horiz-adv-x="1685" d="M2 885q0 180 59.5 343t171.5 292q111 125 259 196q150 74 319 74q254 0 461 -160q98 -76 172 -177t119 -224l-232 -86q-35 92 -88 165.5t-120.5 126t-146.5 81t-165 28.5q-117 0 -219.5 -52t-179 -141t-120.5 -209t-44 -257q0 -135 44 -255t120.5 -209t179 -141.5 t219.5 -52.5q92 0 178 34t158 95.5t125 147.5t80 188l237 -61q-37 -137 -108 -256q-37 -59 -81 -110.5t-93 -96.5q-102 -88 -230 -137q-127 -49 -266 -49q-170 0 -319 73q-147 70 -259 197q-113 129 -172 291t-59 342z" />
<glyph unicode="D" horiz-adv-x="1513" d="M-2 -6v1786l633 10q168 0 321 -74q145 -72 256 -196q113 -129 173.5 -292t60.5 -343t-60.5 -342t-173.5 -291q-111 -125 -256 -197q-153 -73 -321 -73h-2zM244 236l389 -9q117 0 219 52.5t179 141.5t121 209t44 255q0 137 -45 257t-122 209t-179 141t-219 52l-387 -6 v-1302z" />
<glyph unicode="E" horiz-adv-x="1005" d="M2 -8v1788l920 -4l-2 -246l-672 4v-496h674v-245h-674v-555h674v-246h-920z" />
<glyph unicode="F" horiz-adv-x="1015" d="M2 -8v1788l918 -4v-246l-672 4v-496h672v-245h-672v-801h-246z" />
<glyph unicode="G" horiz-adv-x="1683" d="M0 885q0 180 59.5 343t171.5 292q111 125 258 196q150 74 320 74q254 0 461 -160q98 -76 172 -177t119 -224l-232 -86q-35 92 -88 165.5t-120.5 126t-146.5 81t-165 28.5q-117 0 -219.5 -52t-179 -141t-120.5 -209t-44 -257q0 -135 44 -255t120.5 -209t179 -141.5 t219.5 -52.5q86 0 167 30t150.5 85t123 132t85.5 169h-516v246h772v-895h-245v213q-10 -10 -20.5 -19.5t-20.5 -19.5q-102 -88 -230 -137q-127 -49 -266 -49q-170 0 -320 73q-147 70 -258 197q-113 129 -172 291t-59 342z" />
<glyph unicode="H" horiz-adv-x="1122" d="M-2 2v1767h246v-749h542v749h246v-1767h-246v772h-542v-772h-246z" />
<glyph unicode="I" horiz-adv-x="432" d="M59 2v1767h246v-1767h-246z" />
<glyph unicode="J" horiz-adv-x="1359" d="M-2 631h246q0 -80 30.5 -150.5t83 -123t123 -83t150.5 -30.5t151.5 30.5t123.5 83t83 123t31 150.5v1143h246v-1143q0 -125 -52 -246q-45 -111 -135 -201q-43 -45 -94 -78.5t-106 -58.5q-121 -49 -248 -49q-129 0 -246 49q-115 49 -203 137q-86 86 -135 201 q-49 117 -49 246z" />
<glyph unicode="K" horiz-adv-x="1595" d="M0 -4v1769h246v-817l829 830h348l-827 -828l954 -954h-348l-780 780l-176 -176v-604h-246z" />
<glyph unicode="L" horiz-adv-x="1142" d="M0 2v1770h246v-1524h811v-246h-1057z" />
<glyph unicode="M" horiz-adv-x="1734" d="M2 -6v1761h279l569 -1323l532 1323h273v-1761h-246v1171l-471 -1171h-166l-524 1214v-1214h-246z" />
<glyph unicode="N" horiz-adv-x="1353" d="M2 0v1765h201l807 -1230v1226h245v-1777h-178l-829 1263v-1247h-246z" />
<glyph unicode="O" horiz-adv-x="1679" d="M0 885q0 180 59.5 343t171.5 292q113 125 258 196q154 74 322 74t319 -74q147 -72 259 -196q113 -129 172 -292t59 -343t-59.5 -342t-171.5 -291q-111 -127 -259 -197q-151 -73 -319 -73t-322 73q-145 70 -258 197q-113 129 -172 291t-59 342zM246 885q0 -135 44 -255 t120.5 -209t180 -141.5t220.5 -52.5t219.5 52.5t179 141.5t120.5 209t44 255q0 137 -44 257t-120.5 209t-179 141t-219.5 52t-220.5 -52t-180 -141t-120.5 -209t-44 -257z" />
<glyph unicode="P" horiz-adv-x="1175" d="M-2 -10v1790l561 2q113 0 214 -42t181 -122t122 -181.5t42 -215.5q0 -113 -42 -214.5t-122 -181.5t-181 -121.5t-214 -41.5h-315v-672h-246zM244 907h315q63 0 120.5 24.5t100.5 67.5t67.5 99.5t24.5 122.5t-24.5 123t-67.5 100t-100 67.5t-121 24.5l-315 -2v-627z" />
<glyph unicode="Q" horiz-adv-x="1705" d="M0 885q0 180 59.5 343t171.5 292q113 125 258 196q154 74 322 74t319 -74q147 -72 259 -196q113 -129 172 -292t59 -343q0 -162 -48 -310.5t-142 -271.5l116 -117l-174 -172l-117 115q-59 -45 -125 -74q-150 -73 -315 -73h-4q-168 0 -322 73q-145 70 -258 197 q-113 129 -172 291t-59 342zM246 885q0 -135 44 -255t120.5 -209t180 -141.5t220.5 -52.5q72 0 140.5 20.5t127.5 59.5l-141 142l174 172l141 -142q57 84 89 186.5t32 219.5q0 137 -44 257t-120.5 209t-179 141t-219.5 52t-220.5 -52t-180 -141t-120.5 -209t-44 -257z" />
<glyph unicode="R" horiz-adv-x="1196" d="M2 -10v1790l561 2q113 0 214.5 -42t180.5 -122q80 -80 122 -181.5t42 -215.5q0 -113 -42 -214.5t-122 -181.5q-10 -10 -22.5 -21.5t-24.5 -21.5q25 -18 47 -41q80 -80 122 -181t42 -216v-338h-245v338q0 66 -25 123t-68 100t-100 67.5t-121 24.5v3h-315v-672h-246z M248 907h315q63 0 120.5 24.5t100.5 67.5t68 99.5t25 122.5t-25 123t-68 100t-100 67.5t-121 24.5l-315 -2v-627z" />
<glyph unicode="S" horiz-adv-x="1376" d="M-8 1251q0 123 44 220.5t127 166t201.5 105.5t266.5 37q131 0 248 -49q111 -45 200 -136q88 -88 138 -202q49 -117 49 -246h-246q0 80 -31 150.5t-83 123t-123.5 83t-151.5 30.5q-92 0 -167 -18.5t-126 -53.5q-100 -70 -100 -211q0 -6 1 -16t10 -25.5t29.5 -34 t57.5 -38.5q61 -37 147 -70t176 -63q102 -35 203 -73t185 -87q223 -137 223 -346q0 -131 -56 -236q-53 -98 -151 -162q-82 -55 -203 -84q-104 -24 -229 -24q-129 0 -246 49q-117 51 -201 137q-86 84 -137 201q-49 117 -49 246h246q0 -80 30.5 -151t83 -123t123 -82.5 t150.5 -30.5q195 0 297 67q96 63 96 193q0 8 -2 20t-11.5 29.5t-32 39t-60.5 46.5q-66 41 -156 73.5t-182 65.5q-98 35 -194.5 71t-176.5 83q-98 59 -148 127q-70 92 -69 198z" />
<glyph unicode="T" horiz-adv-x="1290" d="M4 1534v246h1245v-246h-499v-1540h-246v1540h-500z" />
<glyph unicode="U" horiz-adv-x="1359" d="M0 625v1155h246v-1155q0 -80 30.5 -151t83 -123t124 -82.5t151.5 -30.5t150.5 30.5t123 82.5t83 123t30.5 151v1155h246v-1155q0 -129 -49 -246q-45 -111 -136 -201q-88 -88 -202 -137q-117 -49 -246 -49t-248 49q-115 51 -201 137q-90 90 -135 201q-51 121 -51 246z" />
<glyph unicode="V" horiz-adv-x="1331" d="M-45 1778h262l461 -1272l414 1272h258l-578 -1782h-170z" />
<glyph unicode="W" horiz-adv-x="1808" d="M-39 1778h262l461 -1272l100 305l-352 967h262l213 -588l191 588h258l-312 -963l115 -319l418 1282h258l-580 -1782h-176l-159 438l-142 -438h-170z" />
<glyph unicode="X" horiz-adv-x="1300" d="M-47 1778h289l366 -637l336 637h283l-473 -893l514 -889h-289l-363 629l-331 -629h-283l467 885z" />
<glyph unicode="Y" horiz-adv-x="1183" d="M-18 1757l30 17h238l381 -713l307 713h246l18 -9l-436 -1011v-754h-246v748z" />
<glyph unicode="Z" horiz-adv-x="1353" d="M-35 2l901 1524h-725v246h1157l-901 -1524h901v-246h-1333z" />
<glyph unicode="[" horiz-adv-x="503" d="M25 6v1786h434v-246h-189v-1294h172v-246h-417z" />
<glyph unicode="\" horiz-adv-x="923" d="M72 1796h260l448 -1796h-262z" />
<glyph unicode="]" horiz-adv-x="546" d="M25 6v246h188v1294h-172v246h418v-1786h-434z" />
<glyph unicode="^" horiz-adv-x="677" d="M37 1198l297 373l274 -377l-198 -145l-84 116l-97 -121z" />
<glyph unicode="_" horiz-adv-x="1511" d="M74 -43h1380v-246h-1380v246z" />
<glyph unicode="`" horiz-adv-x="526" d="M6 1511v199l12 51l500 -121v-254z" />
<glyph unicode="a" horiz-adv-x="1075" d="M-8 762q0 100 38 190t109 162q72 72 162 109t193 37q100 0 190 -37t162 -109t109.5 -162t37.5 -190v-770h-245v112q-29 -25 -59 -45t-64 -36q-106 -51 -215 -52q-80 0 -154 27t-131 76q-63 55 -97 127.5t-34 158.5q0 72 17.5 124.5t44 90t60.5 62.5t64 39q70 31 148 38 t155 7h31h31q49 0 99 3t79 15q12 4 16 11q2 2 4 10t2 26q-4 47 -25.5 89.5t-55 73t-77.5 48t-93 17.5q-53 0 -99.5 -19.5t-81 -54.5t-55 -81t-20.5 -97h-246zM240 360q0 -35 14 -61.5t38.5 -44.5t55.5 -27.5t62 -9.5q18 0 42.5 4t52 15.5t58.5 34t60 59.5q25 31 45 68.5 t34 84.5q-39 -6 -78.5 -7t-78.5 -1h-31h-31q-53 0 -109.5 -3t-90.5 -19q-14 -6 -28.5 -21.5t-14.5 -71.5z" />
<glyph unicode="b" d="M-2 605v26v27.5t2 27.5v979h246v-510q23 16 47 30.5t49 26.5q111 53 229 54q117 0 228 -54q104 -51 182 -137q78 -92 120 -204.5t42 -239.5q0 -125 -42 -238.5t-120 -204.5q-41 -45 -86 -78.5t-96 -60.5q-113 -51 -228 -51q-117 0 -229 51q-47 25 -96 60v-111h-246v580 q-2 14 -2 27zM246 588q6 -72 34.5 -135.5t71.5 -109.5t99.5 -72.5t119.5 -26.5q68 0 127.5 30.5t103.5 83t69.5 123t25.5 150.5t-25.5 151.5t-69.5 123.5t-103.5 83t-127.5 31q-63 0 -119.5 -26.5t-99.5 -73t-71.5 -109.5t-34.5 -135v-88z" />
<glyph unicode="c" horiz-adv-x="1218" d="M2 635q0 127 42 239.5t120 204.5q74 86 182 138q111 53 227 53q193 0 345 -127q145 -123 200 -309h-264q-43 88 -117.5 139t-163.5 51q-68 0 -127 -30.5t-103 -83t-69.5 -124t-25.5 -151.5t25.5 -150.5t69.5 -123t103.5 -83t126.5 -30.5q86 0 161 50t118 136h264 q-55 -188 -198 -305q-74 -63 -162 -95t-183 -32q-115 0 -227 51q-53 27 -98 60.5t-84 79.5q-78 90 -120 203.5t-42 238.5z" />
<glyph unicode="d" horiz-adv-x="1230" d="M0 631q0 127 42 239.5t120 204.5q78 86 182 137q111 53 227 54q119 0 230 -54q49 -23 98 -59v512h246v-1032v-2v-633h-246v113q-47 -35 -98 -62q-113 -51 -230 -51q-115 0 -227 51q-51 27 -96 60.5t-86 78.5q-78 90 -120 204t-42 239zM246 631q0 -80 25.5 -150.5 t70.5 -123t103 -83t126 -30.5t127.5 30.5t104.5 83t70.5 123t25.5 150.5v2q0 80 -25.5 150.5t-70.5 122.5t-104.5 83t-127.5 31t-126 -31t-103 -83t-70.5 -123.5t-25.5 -151.5z" />
<glyph unicode="e" horiz-adv-x="1220" d="M-6 635q0 125 42 238.5t122 205.5q78 86 182 138q111 53 225 53q113 0 221 -45q106 -47 183 -129q82 -84 125 -194.5t43 -233.5v-123h-889q12 -63 41.5 -117.5t71.5 -94.5t94.5 -62.5t109.5 -22.5q86 0 160 48t117 134h266q-59 -182 -199 -301q-74 -63 -162 -95t-182 -32 q-115 0 -227 51q-53 27 -98 60.5t-84 79.5q-78 90 -120 203.5t-42 238.5zM266 791h604q-33 104 -114.5 168.5t-190.5 64.5q-98 0 -179 -65.5t-120 -167.5z" />
<glyph unicode="f" horiz-adv-x="743" d="M-2 -2v1284q0 100 37 189.5t108 160.5q72 72 162 109t189 37q205 -1 350 -146q72 -72 108.5 -161t36.5 -189h-246q0 51 -19 97t-53 80t-80 53.5t-97 19.5t-97.5 -19.5t-80 -53.5t-53 -80t-19.5 -97v-383h264v-246h-264v-655h-246zM741 1163v125h246v-125h-246z" />
<glyph unicode="g" d="M0 63h246q0 -68 25.5 -127t70.5 -104t104.5 -70.5t126.5 -25.5q68 0 127.5 25.5t104.5 70.5t70.5 104.5t25.5 126.5v50q-49 -37 -102 -64q-113 -51 -228 -51t-227 51q-53 27 -98 60.5t-84 78.5q-78 90 -120 204t-42 239q0 127 42 239.5t120 204.5q74 86 182 137 q111 53 227 54q117 0 228 -54q51 -23 102 -61v90h246v-1178q0 -117 -44 -220t-124 -185q-82 -82 -186.5 -125t-219.5 -43q-117 0 -220 43t-185 125t-125 185.5t-43 219.5zM246 631q0 -80 25.5 -150.5t69.5 -123t103 -83t127 -30.5t127.5 30.5t104.5 83t70.5 123t25.5 150.5 t-25.5 151.5t-70.5 123.5t-104.5 83t-127.5 31t-127 -31t-103 -83t-69.5 -123.5t-25.5 -151.5z" />
<glyph unicode="h" horiz-adv-x="1224" d="M-4 637v27.5t2 27.5v977h246v-508q39 31 96 58q111 53 227 53q117 0 228 -53q108 -52 182 -138q78 -92 121 -204.5t43 -239.5v-633h-246v633q0 80 -25.5 151.5t-70.5 124t-104.5 83t-127.5 30.5q-63 0 -119.5 -26.5t-99.5 -72.5t-70.5 -109.5t-33.5 -135.5v-680h-246v635 h-2z" />
<glyph unicode="i" horiz-adv-x="380" d="M43 2v1237h246v-1237h-246zM43 1282v258h246v-258h-246z" />
<glyph unicode="j" horiz-adv-x="739" d="M-334 -12h246q0 -51 19.5 -97.5t53 -80t79 -53t98.5 -19.5q51 0 97 19.5t80 53t53.5 80t19.5 97.5v1247h245v-1247q0 -100 -37.5 -189.5t-107.5 -160.5q-72 -72 -162 -109t-188 -37q-100 0 -190.5 37t-159.5 109q-145 145 -146 350zM412 1278v258h245v-258h-245z" />
<glyph unicode="k" d="M-2 2v1667h246v-977l579 580h312l18 -19l-612 -612l637 -637h-347l-464 465l-123 -125v-342h-246z" />
<glyph unicode="l" horiz-adv-x="413" d="M55 2v1667h246v-1667h-246z" />
<glyph unicode="m" horiz-adv-x="1810" d="M-2 774v20.5t2 20.5v424h246v-35q113 66 248 66q205 0 350 -146l18 -18l21 20q72 72 162 109t188 37q205 -1 350 -146t146 -350v-776h-246v776q0 51 -19.5 97.5t-53.5 80t-80 53t-97 19.5q-47 0 -88 -16.5t-74 -44t-54.5 -65.5t-29.5 -81q2 -10 2 -22.5v-22.5v-776h-246 v776v2h-6q0 10 1 21.5t1 21.5q-8 43 -29.5 81t-54 65.5t-74.5 43t-87 15.5q-47 0 -90.5 -17.5t-76 -47t-54 -69.5t-27.5 -87v-801h-246v772h-2z" />
<glyph unicode="n" horiz-adv-x="1232" d="M2 0v1221h246v-66q43 35 100 62q111 53 230 53q117 0 227 -53q104 -52 182 -138q78 -92 120 -204.5t42 -239.5v-633h-246v633q0 80 -25.5 151.5t-70.5 124t-103.5 83t-125.5 30.5q-68 0 -127.5 -30.5t-104.5 -83t-70.5 -124t-25.5 -151.5h-2v-635h-246z" />
<glyph unicode="o" horiz-adv-x="1222" d="M-2 631q0 127 42 239.5t120 204.5q78 86 182 137q111 53 229 54q117 0 228 -54q104 -51 182 -137q78 -92 120 -204.5t42 -239.5q0 -125 -42 -238.5t-120 -204.5q-41 -45 -86 -78.5t-96 -60.5q-113 -51 -228 -51q-117 0 -229 51q-51 27 -96 60.5t-86 78.5q-78 90 -120 204 t-42 239zM244 631q0 -80 25.5 -150.5t70.5 -123t104.5 -83t126.5 -30.5q68 0 126.5 30.5t103.5 83t70.5 123t25.5 150.5t-25.5 151.5t-70.5 123.5t-103.5 83t-126.5 31t-127 -31t-104 -83t-70.5 -123.5t-25.5 -151.5z" />
<glyph unicode="p" d="M0 -385v1018v2v602h246v-82q49 37 98 59q111 53 229 54q117 0 228 -54q104 -51 182 -137q78 -92 120 -204.5t42 -239.5q0 -125 -42 -238.5t-120 -204.5q-41 -45 -86 -78.5t-96 -60.5q-113 -51 -228 -51q-117 0 -229 51q-53 27 -98 62v-498h-246zM246 633 q0 -80 25.5 -150.5t70.5 -123t104 -83t127 -30.5t126.5 30.5t103.5 83t70.5 123t25.5 150.5t-25.5 151.5t-70.5 124t-103.5 83t-126.5 30.5t-127 -30.5t-104 -83t-70.5 -123t-25.5 -150.5v-2z" />
<glyph unicode="q" horiz-adv-x="1230" d="M0 633q0 127 42 239.5t120 204.5q78 86 182 137q111 53 229 54q117 0 228 -54q49 -23 98 -59v82h246v-602v-2v-1018h-246v498q-47 -35 -98 -62q-113 -51 -228 -51q-117 0 -229 51q-51 27 -96 60.5t-86 78.5q-78 90 -120 204t-42 239zM246 633q0 -80 25.5 -150.5 t70.5 -123t104 -83t127 -30.5t126.5 30.5t103.5 83t70.5 123t25.5 150.5v2q0 80 -25.5 150.5t-70.5 123t-103.5 83t-126.5 30.5t-127 -30.5t-104 -83t-70.5 -124t-25.5 -151.5z" />
<glyph unicode="r" horiz-adv-x="1040" d="M-2 494v749h246v-39q57 33 120.5 50.5t131.5 17.5q205 -1 350 -146q72 -72 108.5 -160.5t36.5 -189.5h-246q0 51 -19 97.5t-53 80t-80 53t-97 19.5t-97.5 -19.5t-80 -53t-53 -80t-19.5 -97.5v-776h-246v494h-2z" />
<glyph unicode="s" horiz-adv-x="1077" d="M0 494h246q0 -51 19.5 -97.5t53 -80t79.5 -53t98 -19.5q125 0 196 45q53 33 53 102q0 25 -7 42.5t-29.5 30.5t-63.5 22.5t-108 17.5q-12 2 -23.5 3t-24.5 5q-53 8 -124.5 23.5t-139.5 48.5q-41 20 -73.5 45.5t-57.5 54.5q-65 81 -65 179q0 95 37 173q35 74 106 129 q125 94 324 95q205 0 350 -146q72 -72 108.5 -161t36.5 -189h-246q0 51 -19 97t-53 80t-80 53.5t-97 19.5q-117 0 -174 -45q-16 -10 -32 -33t-16 -70q0 -8 7.5 -23.5t52.5 -37.5q43 -23 97 -34t95 -17l43 -6q55 -6 122 -18.5t126 -45.5q41 -20 72 -48t53 -63q49 -78 49 -182 q0 -98 -43 -177t-121 -132q-131 -84 -331 -84q-98 0 -188.5 37t-162.5 108q-145 145 -145 351z" />
<glyph unicode="t" horiz-adv-x="1073" d="M2 498v1161h246v-389h735v-246h-735v-526q0 -51 19.5 -97.5t53 -80t79.5 -53t98 -19.5q51 0 97 19.5t80 53t53.5 79.5t19.5 98h245q0 -100 -36.5 -190.5t-108.5 -160.5q-72 -72 -161 -108.5t-189 -36.5q-205 0 -351 145q-72 70 -108.5 160t-36.5 191z" />
<glyph unicode="u" d="M0 631v635h246v-635q0 -80 25.5 -150.5t70.5 -123t104.5 -83t126.5 -30.5q68 0 126.5 30.5t103.5 83t70.5 123t25.5 150.5v635h246v-635q0 -125 -42 -238.5t-120 -204.5q-41 -45 -86 -78.5t-96 -60.5q-113 -51 -228 -51q-117 0 -229 51q-51 27 -96 60.5t-86 78.5 q-78 90 -120 204t-42 239z" />
<glyph unicode="v" horiz-adv-x="1163" d="M-49 1270h264l320 -809l339 809h269l-537 -1268h-153z" />
<glyph unicode="w" horiz-adv-x="1550" d="M-51 1268h264l322 -811l73 178l-250 633h265l122 -310l132 310h266l-269 -637l70 -174l342 811h266l-534 -1268h-158l-123 307l-129 -307h-157z" />
<glyph unicode="x" horiz-adv-x="1101" d="M-18 0l419 639l-413 629h245l291 -441l291 441h246l-414 -627l424 -641h-248l-299 453l-297 -453h-245z" />
<glyph unicode="y" horiz-adv-x="1236" d="M4 70h246q0 -68 25.5 -127.5t70.5 -104.5t104.5 -70.5t127.5 -25.5t127 25.5t104 70.5t70.5 104.5t25.5 127.5v49q-23 -18 -48.5 -33.5t-51.5 -30.5q-113 -51 -227 -51q-117 0 -230 51q-51 27 -96 61t-86 79q-78 90 -120 203.5t-42 238.5v633h246v-633q0 -80 25.5 -150.5 t70.5 -123t104.5 -83t127.5 -30.5t126 30.5t103 83t70.5 123t25.5 150.5h2v639h246v-1206q0 -117 -43 -220.5t-125 -185.5t-185.5 -125t-219.5 -43q-117 0 -220.5 43t-185.5 125q-80 82 -124 185.5t-44 220.5z" />
<glyph unicode="z" horiz-adv-x="1251" d="M-39 0l776 1014h-737v246h1212l-778 -1014h746v-246h-1219z" />
<glyph unicode="{" horiz-adv-x="915" d="M201 944q-4 0 6 18.5t22.5 41t23.5 41t9 16.5q4 6 8 14q6 14 15 51q14 68 24 158q10 80 24.5 161t43.5 152q37 90 100 146q78 66 187 65v-245q-12 0 -27.5 -7.5t-32.5 -50.5q-20 -49 -30.5 -116.5t-20.5 -137.5q-8 -68 -18.5 -130t-28.5 -115q-14 -37 -25 -60 q18 -35 31 -76q20 -61 32.5 -133.5t22.5 -150.5t22.5 -154t33.5 -133q10 -29 18 -42t12 -17q6 -4 11 -4v-246q-104 0 -185 76q-55 55 -88 151q-29 74 -42 161t-25 175q-8 53 -15.5 103.5t-17.5 93.5q-10 51 -19.5 67.5t-11.5 18.5q2 -2 -9 15t-23.5 37.5t-21.5 38t-5 17.5z " />
<glyph unicode="|" horiz-adv-x="843" d="M303 -150v2098h246v-2098h-246z" />
<glyph unicode="}" horiz-adv-x="720" d="M188 -10v246q6 0 11 4q4 4 12 17t18 42q20 57 32.5 133t23.5 154q10 78 22 150.5t33 133.5q12 41 31 76q-10 23 -25 60q-18 53 -28.5 115.5t-18.5 129.5q-10 70 -20.5 137.5t-30.5 116.5q-16 43 -31.5 50.5t-28.5 7.5v245q106 0 189 -65q63 -57 98 -146q29 -72 43 -152.5 t25 -160.5q10 -90 24 -158q4 -20 7.5 -31.5t7.5 -19.5t8 -14q-2 2 9 -16.5t23.5 -41t22.5 -41t6 -18.5q4 0 -5 -17.5t-21.5 -38t-23.5 -37.5t-9 -15q0 -2 -10.5 -18.5t-20.5 -67.5q-10 -43 -17 -93.5t-16 -103.5q-10 -88 -24.5 -175t-42.5 -161q-33 -96 -88 -151 q-80 -76 -185 -76z" />
<glyph unicode="~" horiz-adv-x="1705" d="M479 924q4 10 35 42.5t86 59.5q20 10 54 19.5t75 9.5t91 -13.5t106 -48.5q63 -43 116 -37q16 2 25.5 7.5t11.5 5.5q-2 0 -4 -2l160 -189q-10 -8 -44 -28.5t-91 -32.5q-31 -6 -70 -6q-47 0 -107.5 15t-127.5 58q-53 35 -84 23q-10 -4 -18.5 -11.5t-10.5 -11.5l2 4z" />
<glyph unicode="&#xa1;" horiz-adv-x="350" d="M0 -520h246v1290h-246v-1290zM0 946h246v271h-246v-271z" />
<glyph unicode="&#xa2;" horiz-adv-x="1218" d="M2 635q0 -125 42 -238.5t120 -203.5q39 -45 84 -79t98 -61q113 -51 227 -51q94 0 182.5 32t162.5 95q143 117 198 305h-264q-43 -86 -118 -136t-161 -50q-68 0 -127 30.5t-103 83t-69.5 123t-25.5 150.5t25.5 151.5t69.5 124t103.5 83t126.5 30.5q88 0 163 -51t118 -139 h264q-55 186 -200 309q-152 127 -345 127q-117 0 -227 -53q-109 -51 -182 -138q-78 -92 -120 -204.5t-42 -239.5zM444 -416v2097h246v-2097h-246z" />
<glyph unicode="&#xa3;" horiz-adv-x="1343" d="M-2 -4v1128v27q6 115 49 219q49 115 137 203q86 86 201 135q117 49 246 49q131 0 248 -49q115 -49 200 -135q88 -88 138 -203q49 -117 49 -246h-246q0 80 -31 151t-83 123t-123.5 82.5t-151.5 30.5t-150.5 -29.5t-123 -81.5t-83 -122t-30.5 -150v-227h442v-246h-442v-413 h1016v-246h-1262z" />
<glyph unicode="&#xa4;" horiz-adv-x="1196" d="M2 1264l174 174l119 -121q121 70 254 69q139 0 256 -69l158 158l174 -175l-158 -157q70 -117 70 -256q0 -152 -84 -277l116 -114l-174 -174l-125 124q-111 -57 -233 -57q-129 0 -240 62l-114 -117l-175 174l111 108q-41 59 -60.5 129t-19.5 142q0 137 70 258zM297 887 q0 -53 19.5 -98.5t54.5 -80t80 -54t98 -19.5q90 0 156 53l45 45q25 33 39 72t14 82q0 51 -20.5 98t-54.5 81t-81 54.5t-98 20.5q-53 0 -98 -20.5t-80 -54.5t-54.5 -81t-19.5 -98z" />
<glyph unicode="&#xa5;" horiz-adv-x="1177" d="M-25 1757l31 17h238l381 -713l307 713h246l18 -9l-436 -1011v-754h-246v748zM238 393v246h274v-246h-274zM760 391v246h274v-246h-274z" />
<glyph unicode="&#xa7;" horiz-adv-x="1087" d="M-20 -59q0 -100 36.5 -189.5t108.5 -161.5t162 -108.5t188 -36.5q201 0 332 84q78 53 121 132t43 177q0 104 -49 182q-23 35 -53.5 63t-71.5 48q-59 33 -126 45t-122 19l-43 6q-41 6 -95.5 17t-97.5 34q-45 23 -52 38t-7 23q0 47 15.5 70t31.5 33q57 45 174 45 q51 0 97 -19.5t80 -53.5t53.5 -80t19.5 -97h246q0 205 -146 350q-72 72 -161 109t-189 37q-199 0 -323 -95q-72 -55 -107 -129q-37 -78 -37 -170q0 -100 66 -182q25 -29 57.5 -54.5t73.5 -45.5q68 -33 139.5 -48.5t124.5 -23.5q12 -4 23.5 -5t23.5 -3q68 -8 109 -17.5 t63.5 -22.5t29.5 -30.5t7 -42.5q0 -70 -53 -102q-72 -45 -197 -45q-51 0 -97 19.5t-80 53t-53.5 79.5t-19.5 98h-245zM0 350q0 -205 145 -350q72 -72 162 -108.5t189 -36.5q201 0 331 84q78 53 121 132t43 177q0 104 -49 182q-23 35 -53.5 63t-71.5 48q-59 33 -125.5 45 t-122.5 18l-43 6q-41 6 -95 17.5t-97 34.5q-45 23 -52.5 38t-7.5 23q0 47 15.5 69.5t32.5 32.5q57 45 174 45q51 0 97 -19.5t80 -53t53 -79.5t19 -97h246q0 100 -36.5 189t-108.5 161q-145 145 -350 145q-199 0 -324 -94q-72 -55 -106 -129q-37 -78 -37 -170q0 -100 65 -182 q25 -29 57.5 -54.5t73.5 -46.5q68 -33 139.5 -48t124.5 -23q12 -4 23.5 -5.5t24.5 -3.5q68 -8 108.5 -17t63 -22.5t29.5 -31t7 -41.5q0 -70 -53 -103q-72 -45 -196 -45q-51 0 -97.5 19.5t-80 53.5t-53 80t-19.5 97h-246z" />
<glyph unicode="&#xa8;" horiz-adv-x="843" d="M68 1391v286h245v-286h-245zM498 1391v286h245v-286h-245z" />
<glyph unicode="&#xa9;" horiz-adv-x="1411" d="M39 897q0 131 49 248q51 117 137 201q84 86 201 137q117 49 246 49q131 0 248 -49q117 -51 200 -137q86 -84 137 -201q49 -117 50 -248q0 -129 -50 -246q-51 -117 -137 -200q-84 -86 -200 -138q-117 -49 -248 -49q-129 0 -246 49q-117 51 -201 138q-86 84 -137 200 q-49 117 -49 246zM285 897q0 -80 30.5 -150.5t83 -123t123 -83t150.5 -30.5t151.5 30.5t123.5 83t83 123t31 150.5t-31 151.5t-83 124t-123.5 83t-151.5 30.5t-150.5 -30.5t-123 -83t-83 -124t-30.5 -151.5zM352 891q0 139 88 239q45 51 104.5 79t125.5 28q100 0 186 -63 q76 -61 111 -154l-232 -86q-20 57 -65 57q-29 0 -50.5 -29.5t-21.5 -70.5t21.5 -69.5t50.5 -28.5q23 0 42 18t27 47l238 -61q-29 -109 -109 -176q-86 -74 -198 -74q-66 0 -125.5 27.5t-104.5 78.5q-43 47 -65.5 109.5t-22.5 128.5z" />
<glyph unicode="&#xaa;" horiz-adv-x="505" d="M-1 852q0 42 15.5 79t45.5 67t67 45.5t80 15.5q42 0 79 -15.5t67 -45.5t45.5 -67t15.5 -79v-319h-101v46q-12 -10 -24.5 -18.5t-27.5 -14.5q-44 -22 -89 -22q-33 0 -63.5 11t-54.5 32q-26 23 -40 53t-14 65q0 30 7 52t18 37.5t25 26t27 15.5q29 13 61.5 16t64.5 3h12h13 q21 0 41.5 1.5t32.5 6.5q5 1 7 4q1 1 1.5 4.5t0.5 10.5q-1 20 -10 37.5t-23 30t-32.5 20t-38.5 7.5q-22 0 -41.5 -8t-33.5 -22.5t-22.5 -34t-8.5 -40.5h-102zM102 685q0 -14 5.5 -25t16 -18.5t23 -11.5t25.5 -4q8 0 18 1.5t21.5 6.5t24.5 14.5t25 24.5q10 13 18.5 28.5 t13.5 34.5q-16 -2 -32.5 -2.5t-32.5 -0.5h-13h-12q-22 0 -45.5 -1t-38.5 -8q-5 -3 -11 -9t-6 -30z" />
<glyph unicode="&#xab;" horiz-adv-x="1341" d="M82 756l686 467v-297l-250 -170l250 -170v-297zM594 756l686 467v-297l-250 -170l250 -170v-297z" />
<glyph unicode="&#xac;" horiz-adv-x="1705" d="M74 653v246h1380v-246h-1380z" />
<glyph unicode="&#xad;" horiz-adv-x="759" d="M74 653v246h622v-246h-622z" />
<glyph unicode="&#xae;" horiz-adv-x="1353" d="M18 897q0 131 50 248q51 117 137 201q84 86 201 137q117 49 245 49q131 0 248 -49q117 -51 201 -137q86 -84 137 -201q49 -117 49 -248q0 -129 -49 -246q-51 -117 -137 -200q-84 -86 -201 -138q-117 -49 -248 -49q-129 0 -245 49q-117 51 -201 138q-86 84 -137 200 q-49 117 -50 246zM264 897q0 -88 37 -165t98 -130v590q-61 -53 -98 -129t-37 -166zM410 596q49 -41 110 -63.5t131 -22.5q72 0 135.5 24.5t114.5 65.5h-217v72q0 18 -18 18h-21v-94h-235zM432 1219h234q55 0 103 -20.5t84 -56.5t56.5 -84t20.5 -104q0 -76 -43 -141 q43 -66 43 -141v-45q51 53 80.5 122.5t29.5 147.5q0 80 -30.5 151.5t-83 124t-124 83t-151.5 30.5q-59 0 -115.5 -17.5t-103.5 -49.5zM645 936h21q18 0 18 18t-18 19h-21v-37z" />
<glyph unicode="&#xb0;" horiz-adv-x="628" d="M18 1368q0 55 20.5 103.5t56.5 85t84 57t104 20.5q55 0 103 -20.5t85 -57t57.5 -85t20.5 -103.5t-20.5 -103t-57.5 -84t-85 -56.5t-103 -20.5t-103.5 20.5t-84.5 56.5t-56.5 84t-20.5 103zM264 1368q0 -18 19 -18q20 0 20 18q0 21 -20 21q-18 0 -19 -21z" />
<glyph unicode="&#xb2;" horiz-adv-x="421" d="M2 358l3 38q1 2 6 21.5t22 46.5q20 33 50 58q36 31 87 52v1q26 9 51.5 21t42.5 26q13 12 18.5 24t5.5 29q0 18 -8.5 37.5t-24.5 35.5q-15 17 -35 26t-40 9q-22 0 -41.5 -8.5t-34.5 -23t-23 -34.5t-8 -42h-69q0 36 14 69q14 32 38 55q23 24 56 39q32 13 68 13q37 0 70 -16 q31 -15 55 -40q24 -26 37.5 -57t13.5 -63q0 -63 -47 -104q-22 -19 -52.5 -33t-61.5 -27q-69 -29 -103 -80q-1 -1 -1.5 -2.5t-1.5 -2.5h265v-68h-352z" />
<glyph unicode="&#xb3;" horiz-adv-x="368" d="M0 514h68q0 -17 6.5 -32.5t18.5 -27.5t27.5 -18.5t32.5 -6.5q18 0 33.5 6.5t27.5 18t18.5 27t6.5 33.5q0 1 -2 10.5t-8 19.5q-16 27 -57 27h-82l58 58q6 7 13 8.5t12 1.5q35 4 50.5 18t15.5 41q0 18 -6.5 34t-18.5 27.5t-27.5 18t-33.5 6.5q-17 0 -32.5 -6.5t-27.5 -18 t-18.5 -27.5t-6.5 -34h-68q0 32 11.5 59.5t33.5 49.5t50 33.5t58 11.5q32 0 59.5 -11.5t49.5 -33.5t33.5 -50t11.5 -59q0 -38 -17 -66q-9 -15 -23 -27q13 -11 22 -28q7 -12 10.5 -22.5t5 -19t2 -14t0.5 -6.5v-1q0 -30 -11.5 -58t-33.5 -50t-49.5 -33.5t-59.5 -11.5 q-30 0 -58 11.5t-50 33.5t-33.5 50t-11.5 58z" />
<glyph unicode="&#xb4;" horiz-adv-x="514" d="M2 1458v193l512 137v-256l-498 -131z" />
<glyph unicode="&#xb7;" horiz-adv-x="352" d="M37 817v287h246v-287h-246z" />
<glyph unicode="&#xb8;" horiz-adv-x="618" d="M23 -369l135 136h-68l35 151l25 111l96 -21v6q8 0 44 -3t79 -17q68 -23 106 -62q66 -61 66 -151q0 -74 -52 -131q-35 -41 -92 -64q-69 -28 -155 -28q-61 0 -120 17t-99 56z" />
<glyph unicode="&#xb9;" horiz-adv-x="235" d="M-3 748l62 112h55v-498h-69v359z" />
<glyph unicode="&#xba;" horiz-adv-x="579" d="M1 684q0 45 15 85t42 73q27 31 64 49q39 19 80 19t80 -19q37 -18 64 -49q27 -33 42 -73t15 -85q0 -44 -15 -84.5t-42 -72.5q-14 -16 -30 -28t-34 -22q-39 -18 -80 -18t-80 18q-18 10 -34 22t-30 28q-27 32 -42 72.5t-15 84.5zM88 684q0 -28 8.5 -53t24.5 -44t37 -29.5 t44 -10.5q24 0 44.5 10.5t36.5 29.5t25 44t9 53q0 29 -9 54.5t-25 43.5t-36.5 29.5t-44.5 11.5t-44.5 -11.5t-36.5 -29.5t-24.5 -43.5t-8.5 -54.5z" />
<glyph unicode="&#xbb;" horiz-adv-x="1439" d="M84 285v297l250 170l-250 170v297l686 -467zM657 285v297l250 170l-250 170v297l686 -467z" />
<glyph unicode="&#xbc;" horiz-adv-x="2488" d="M-8 1386l223 402h195v-1780h-246v1282zM609 0l448 1796h260l-448 -1796h-260zM1401 748v1005h246v-760h457v760h245v-1751h-245v746h-703z" />
<glyph unicode="&#xbd;" horiz-adv-x="2764" d="M-8 1386l223 402h195v-1780h-246v1282zM609 0l448 1796h260l-448 -1796h-260zM1401 2l14 137q2 10 19.5 80t79.5 168q74 117 180 207q129 113 313 188l2 2q92 35 185.5 78t152.5 94q47 41 66.5 85t19.5 104q0 66 -30.5 135.5t-85.5 126.5q-57 61 -128 94t-145 33 q-80 0 -150.5 -30.5t-123 -83t-83 -124t-30.5 -151.5h-246q0 131 49 248q51 117 138 200q84 86 200 138q117 49 246 49q135 0 252 -58q113 -53 199 -145q88 -92 136 -204.5t48 -227.5q0 -227 -170 -373q-80 -70 -188.5 -121t-221.5 -96q-250 -104 -370 -287q-4 -4 -6 -10 t-7 -10h957v-246h-1272z" />
<glyph unicode="&#xbe;" horiz-adv-x="3168" d="M0 565h246q0 -63 24.5 -119.5t66.5 -98.5t98.5 -66.5t119.5 -24.5t120.5 24.5t99.5 65.5t66.5 97.5t24.5 119.5q0 6 -7 40t-30 71q-57 96 -208 96h-297l211 209q23 25 48 31t44 8q127 14 183 64.5t56 148.5q0 63 -24.5 120.5t-66.5 99.5t-99.5 66.5t-120.5 24.5 t-119.5 -24.5t-98.5 -66.5t-66.5 -99.5t-24.5 -120.5h-246q0 113 42 214t120 179q80 80 181 122t212 42q113 0 214 -42t179 -122q80 -78 122 -179.5t42 -213.5q0 -139 -61 -240q-33 -53 -84 -98q45 -41 80 -102q23 -41 36 -79t19 -69t8 -50.5t2 -23.5v-4q0 -111 -42 -212 t-122 -181q-78 -78 -179 -120t-214 -42q-111 0 -212 42t-181 120q-78 80 -120 181.5t-42 211.5zM1289 0l448 1796h260l-448 -1796h-260zM2081 748v1005h246v-760h457v760h245v-1751h-245v746h-703z" />
<glyph unicode="&#xbf;" horiz-adv-x="1329" d="M4 117q0 102 33 182q16 37 37.5 72t50.5 65q47 53 105.5 92t111.5 72q47 29 82 52.5t56.5 45t31.5 45t10 52.5h246q0 -152 -108 -267q-41 -43 -91.5 -75.5t-99.5 -63.5q-51 -31 -92 -58.5t-69.5 -58t-43 -68.5t-14.5 -87q0 -80 30.5 -149.5t84 -123t124 -84t148.5 -30.5 q80 0 151.5 30.5t124 83t83 123t30.5 150.5h246q0 -129 -49 -246q-49 -115 -137 -203q-86 -86 -201 -135q-117 -49 -248 -49t-246 51q-57 23 -107 57.5t-95 77.5q-87 90 -136 203q-49 117 -49 244zM514 963v270h246v-270h-246z" />
<glyph unicode="&#xc0;" horiz-adv-x="1642" d="M2 -6l723 1782h170l725 -1782h-264l-211 518h-668l-211 -518h-264zM565 1982v199l12 51l500 -121v-254zM578 758h466l-233 575z" />
<glyph unicode="&#xc1;" horiz-adv-x="1642" d="M2 -6l723 1782h170l725 -1782h-264l-211 518h-668l-211 -518h-264zM565 1929v193l512 137v-256l-498 -131zM578 758h466l-233 575z" />
<glyph unicode="&#xc2;" horiz-adv-x="1642" d="M2 -6l723 1782h170l725 -1782h-264l-211 518h-668l-211 -518h-264zM535 2038l297 372l274 -376l-198 -146l-84 117l-97 -121zM578 758h466l-233 575z" />
<glyph unicode="&#xc3;" horiz-adv-x="1642" d="M2 -6l723 1782h170l725 -1782h-264l-211 518h-668l-211 -518h-264zM442 2091q4 10 35 43t86 59q20 10 54 19.5t75 9.5t91 -13.5t106 -47.5q63 -43 116 -37q16 2 25.5 7t11.5 5q-2 0 -4 -2l160 -188q-10 -8 -44 -29t-91 -33q-31 -6 -70 -6q-47 0 -107.5 15.5t-127.5 58.5 q-53 35 -84 22q-10 -4 -18.5 -11t-10.5 -11l2 4zM578 758h466l-233 575z" />
<glyph unicode="&#xc4;" horiz-adv-x="1642" d="M2 -6l723 1782h170l725 -1782h-264l-211 518h-668l-211 -518h-264zM471 1862v286h245v-286h-245zM578 758h466l-233 575zM901 1862v286h245v-286h-245z" />
<glyph unicode="&#xc5;" horiz-adv-x="1642" d="M2 -6l723 1782h170l725 -1782h-264l-211 518h-668l-211 -518h-264zM555 2105q0 55 20.5 103.5t56.5 85.5t84 57.5t104 20.5q55 0 103 -20.5t85 -57.5t57.5 -85t20.5 -104q0 -55 -20.5 -103t-57.5 -84t-85 -56.5t-103 -20.5t-103.5 20.5t-84.5 56.5t-56.5 84t-20.5 103z M578 758h466l-233 575zM801 2105q0 -18 19 -18q20 0 20 18q0 21 -20 21q-18 0 -19 -21z" />
<glyph unicode="&#xc6;" horiz-adv-x="1939" d="M2 0l725 1759h180h961v-246h-860l252 -610h581v-246h-481l172 -415h342v-246h-401v4h-107l-272 657h-555l-271 -657h-266zM641 903h352l-176 428z" />
<glyph unicode="&#xc7;" horiz-adv-x="1685" d="M2 885q0 180 59.5 343t171.5 292q111 125 259 196q150 74 319 74q254 0 461 -160q98 -76 172 -177t119 -224l-232 -86q-35 92 -88 165.5t-120.5 126t-146.5 81t-165 28.5q-117 0 -219.5 -52t-179 -141t-120.5 -209t-44 -257q0 -135 44 -255t120.5 -209t179 -141.5 t219.5 -52.5q92 0 178 34t158 95.5t125 147.5t80 188l237 -61q-37 -137 -108 -256q-37 -59 -81 -110.5t-93 -96.5q-102 -88 -230 -137q-127 -49 -266 -49q-170 0 -319 73q-147 70 -259 197q-113 129 -172 291t-59 342zM584 -369l135 136h-68l35 151l25 111l96 -21v6 q8 0 44 -3t79 -17q68 -23 106 -62q66 -61 66 -151q0 -74 -52 -131q-35 -41 -92 -64q-69 -28 -155 -28q-61 0 -120 17t-99 56z" />
<glyph unicode="&#xc8;" horiz-adv-x="1005" d="M2 -8v1788l920 -4l-2 -246l-672 4v-496h674v-245h-674v-555h674v-246h-920zM246 1982v199l12 51l500 -121v-254z" />
<glyph unicode="&#xc9;" horiz-adv-x="1005" d="M2 -8v1788l920 -4l-2 -246l-672 4v-496h674v-245h-674v-555h674v-246h-920zM246 1929v193l512 137v-256l-498 -131z" />
<glyph unicode="&#xca;" horiz-adv-x="1005" d="M2 -8v1788l920 -4l-2 -246l-672 4v-496h674v-245h-674v-555h674v-246h-920zM217 2038l297 372l274 -376l-198 -146l-84 117l-97 -121z" />
<glyph unicode="&#xcb;" horiz-adv-x="1005" d="M2 -8v1788l920 -4l-2 -246l-672 4v-496h674v-245h-674v-555h674v-246h-920zM144 1862v286h245v-286h-245zM574 1862v286h245v-286h-245z" />
<glyph unicode="&#xcc;" horiz-adv-x="432" d="M-37 1982v199l12 51l500 -121v-254zM59 2v1767h246v-1767h-246z" />
<glyph unicode="&#xcd;" horiz-adv-x="432" d="M-37 1929v193l512 137v-256l-498 -131zM59 2v1767h246v-1767h-246z" />
<glyph unicode="&#xce;" horiz-adv-x="432" d="M-67 2038l297 372l274 -376l-198 -146l-84 117l-97 -121zM59 2v1767h246v-1767h-246z" />
<glyph unicode="&#xcf;" horiz-adv-x="432" d="M-139 1862v286h245v-286h-245zM59 2v1767h246v-1767h-246zM291 1862v286h245v-286h-245z" />
<glyph unicode="&#xd0;" horiz-adv-x="1513" d="M-147 770v246h622v-246h-622zM-2 -6v1786l633 10q168 0 321 -74q145 -72 256 -196q113 -129 173.5 -292t60.5 -343t-60.5 -342t-173.5 -291q-111 -125 -256 -197q-153 -73 -321 -73h-2zM244 236l389 -9q117 0 219 52.5t179 141.5t121 209t44 255q0 137 -45 257t-122 209 t-179 141t-219 52l-387 -6v-1302z" />
<glyph unicode="&#xd1;" horiz-adv-x="1353" d="M2 0v1765h201l807 -1230v1226h245v-1777h-178l-829 1263v-1247h-246zM299 2091q4 10 35 43t86 59q20 10 54 19.5t75 9.5t91 -13.5t106 -47.5q63 -43 116 -37q16 2 25.5 7t11.5 5q-2 0 -4 -2l160 -188q-10 -8 -44 -29t-91 -33q-31 -6 -70 -6q-47 0 -107.5 15.5 t-127.5 58.5q-53 35 -84 22q-10 -4 -18.5 -11t-10.5 -11l2 4z" />
<glyph unicode="&#xd2;" horiz-adv-x="1679" d="M0 885q0 180 59.5 343t171.5 292q113 125 258 196q154 74 322 74t319 -74q147 -72 259 -196q113 -129 172 -292t59 -343t-59.5 -342t-171.5 -291q-111 -127 -259 -197q-151 -73 -319 -73t-322 73q-145 70 -258 197q-113 129 -172 291t-59 342zM246 885q0 -135 44 -255 t120.5 -209t180 -141.5t220.5 -52.5t219.5 52.5t179 141.5t120.5 209t44 255q0 137 -44 257t-120.5 209t-179 141t-219.5 52t-220.5 -52t-180 -141t-120.5 -209t-44 -257zM584 1982v199l12 51l500 -121v-254z" />
<glyph unicode="&#xd3;" horiz-adv-x="1679" d="M0 885q0 180 59.5 343t171.5 292q113 125 258 196q154 74 322 74t319 -74q147 -72 259 -196q113 -129 172 -292t59 -343t-59.5 -342t-171.5 -291q-111 -127 -259 -197q-151 -73 -319 -73t-322 73q-145 70 -258 197q-113 129 -172 291t-59 342zM246 885q0 -135 44 -255 t120.5 -209t180 -141.5t220.5 -52.5t219.5 52.5t179 141.5t120.5 209t44 255q0 137 -44 257t-120.5 209t-179 141t-219.5 52t-220.5 -52t-180 -141t-120.5 -209t-44 -257zM584 1929v193l512 137v-256l-498 -131z" />
<glyph unicode="&#xd4;" horiz-adv-x="1679" d="M0 885q0 180 59.5 343t171.5 292q113 125 258 196q154 74 322 74t319 -74q147 -72 259 -196q113 -129 172 -292t59 -343t-59.5 -342t-171.5 -291q-111 -127 -259 -197q-151 -73 -319 -73t-322 73q-145 70 -258 197q-113 129 -172 291t-59 342zM246 885q0 -135 44 -255 t120.5 -209t180 -141.5t220.5 -52.5t219.5 52.5t179 141.5t120.5 209t44 255q0 137 -44 257t-120.5 209t-179 141t-219.5 52t-220.5 -52t-180 -141t-120.5 -209t-44 -257zM553 2038l297 372l274 -376l-198 -146l-84 117l-97 -121z" />
<glyph unicode="&#xd5;" horiz-adv-x="1679" d="M0 885q0 180 59.5 343t171.5 292q113 125 258 196q154 74 322 74t319 -74q147 -72 259 -196q113 -129 172 -292t59 -343t-59.5 -342t-171.5 -291q-111 -127 -259 -197q-151 -73 -319 -73t-322 73q-145 70 -258 197q-113 129 -172 291t-59 342zM246 885q0 -135 44 -255 t120.5 -209t180 -141.5t220.5 -52.5t219.5 52.5t179 141.5t120.5 209t44 255q0 137 -44 257t-120.5 209t-179 141t-219.5 52t-220.5 -52t-180 -141t-120.5 -209t-44 -257zM461 2091q4 10 35 43t86 59q20 10 54 19.5t75 9.5t91 -13.5t106 -47.5q63 -43 116 -37q16 2 25.5 7 t11.5 5q-2 0 -4 -2l160 -188q-10 -8 -44 -29t-91 -33q-31 -6 -70 -6q-47 0 -107.5 15.5t-127.5 58.5q-53 35 -84 22q-10 -4 -18.5 -11t-10.5 -11l2 4z" />
<glyph unicode="&#xd6;" horiz-adv-x="1679" d="M0 885q0 180 59.5 343t171.5 292q113 125 258 196q154 74 322 74t319 -74q147 -72 259 -196q113 -129 172 -292t59 -343t-59.5 -342t-171.5 -291q-111 -127 -259 -197q-151 -73 -319 -73t-322 73q-145 70 -258 197q-113 129 -172 291t-59 342zM246 885q0 -135 44 -255 t120.5 -209t180 -141.5t220.5 -52.5t219.5 52.5t179 141.5t120.5 209t44 255q0 137 -44 257t-120.5 209t-179 141t-219.5 52t-220.5 -52t-180 -141t-120.5 -209t-44 -257zM482 1862v286h245v-286h-245zM912 1862v286h245v-286h-245z" />
<glyph unicode="&#xd7;" horiz-adv-x="1705" />
<glyph unicode="&#xd8;" horiz-adv-x="1679" d="M0 885q0 180 59.5 343t171.5 292q113 125 258 196q154 74 322 74t319 -74q147 -72 259 -196q113 -129 172 -292t59 -343t-59.5 -342t-171.5 -291q-111 -127 -259 -197q-151 -73 -319 -73t-322 73q-145 70 -258 197q-113 129 -172 291t-59 342zM246 885q0 -135 44 -255 t120.5 -209t180 -141.5t220.5 -52.5t219.5 52.5t179 141.5t120.5 209t44 255q0 137 -44 257t-120.5 209t-179 141t-219.5 52t-220.5 -52t-180 -141t-120.5 -209t-44 -257zM486 0l448 1796h260l-448 -1796h-260z" />
<glyph unicode="&#xd9;" horiz-adv-x="1359" d="M0 625v1155h246v-1155q0 -80 30.5 -151t83 -123t124 -82.5t151.5 -30.5t150.5 30.5t123 82.5t83 123t30.5 151v1155h246v-1155q0 -129 -49 -246q-45 -111 -136 -201q-88 -88 -202 -137q-117 -49 -246 -49t-248 49q-115 51 -201 137q-90 90 -135 201q-51 121 -51 246z M424 1982v199l12 51l500 -121v-254z" />
<glyph unicode="&#xda;" horiz-adv-x="1359" d="M0 625v1155h246v-1155q0 -80 30.5 -151t83 -123t124 -82.5t151.5 -30.5t150.5 30.5t123 82.5t83 123t30.5 151v1155h246v-1155q0 -129 -49 -246q-45 -111 -136 -201q-88 -88 -202 -137q-117 -49 -246 -49t-248 49q-115 51 -201 137q-90 90 -135 201q-51 121 -51 246z M424 1929v193l512 137v-256l-498 -131z" />
<glyph unicode="&#xdb;" horiz-adv-x="1359" d="M0 625v1155h246v-1155q0 -80 30.5 -151t83 -123t124 -82.5t151.5 -30.5t150.5 30.5t123 82.5t83 123t30.5 151v1155h246v-1155q0 -129 -49 -246q-45 -111 -136 -201q-88 -88 -202 -137q-117 -49 -246 -49t-248 49q-115 51 -201 137q-90 90 -135 201q-51 121 -51 246z M393 2038l297 372l274 -376l-198 -146l-84 117l-97 -121z" />
<glyph unicode="&#xdc;" horiz-adv-x="1359" d="M0 625v1155h246v-1155q0 -80 30.5 -151t83 -123t124 -82.5t151.5 -30.5t150.5 30.5t123 82.5t83 123t30.5 151v1155h246v-1155q0 -129 -49 -246q-45 -111 -136 -201q-88 -88 -202 -137q-117 -49 -246 -49t-248 49q-115 51 -201 137q-90 90 -135 201q-51 121 -51 246z M322 1862v286h245v-286h-245zM752 1862v286h245v-286h-245z" />
<glyph unicode="&#xdd;" horiz-adv-x="1183" d="M-18 1757l30 17h238l381 -713l307 713h246l18 -9l-436 -1011v-754h-246v748zM336 1929v193l512 137v-256l-498 -131z" />
<glyph unicode="&#xde;" horiz-adv-x="1277" d="M-4 0v1782h246v-264l321 -5q129 0 246 -49q117 -51 201 -137q88 -86 135 -201q51 -115 51 -247q0 -131 -51 -246q-47 -115 -135 -201q-84 -86 -201 -137q-117 -49 -248 -49h-319v-246h-246zM242 492h319q80 0 151.5 30.5t124 82.5t83 123t30.5 151t-30.5 151.5t-83 123.5 t-124 83t-151.5 31h-2l-317 4v-780z" />
<glyph unicode="&#xdf;" horiz-adv-x="1335" d="M-2 -14v1190v2v24q6 117 49 221q51 117 137 201q84 86 201 137q117 49 246 49q131 0 248 -49q117 -51 200 -137q86 -84 138 -201q49 -117 49 -247v-2v-5q0 -6 -3 -31.5t-11.5 -64.5t-25 -87t-42.5 -99q-68 -131 -180 -205q-10 -6 -18.5 -12t-18.5 -11q6 -6 12 -11t12 -9 q55 -47 99.5 -90t74.5 -84q98 -133 68 -252q-20 -68 -76 -113q-45 -39 -119 -63q-66 -23 -154.5 -33t-207.5 -10v246q78 0 133 5t92 11t58.5 13t31.5 14q-10 18 -46 63t-132 121q-39 29 -73.5 54.5t-63.5 43.5q-33 23 -62 39l-370 221v-839h-246zM244 834h432q199 0 287 161 q35 61 45 116.5t12 70.5q0 80 -32 149.5t-84 121.5t-122.5 82t-150.5 30t-150.5 -31t-123 -83t-83 -121.5t-30.5 -149.5v-346z" />
<glyph unicode="&#xe0;" horiz-adv-x="1075" d="M-8 762q0 100 38 190t109 162q72 72 162 109t193 37q100 0 190 -37t162 -109t109.5 -162t37.5 -190v-770h-245v112q-29 -25 -59 -45t-64 -36q-106 -51 -215 -52q-80 0 -154 27t-131 76q-63 55 -97 127.5t-34 158.5q0 72 17.5 124.5t44 90t60.5 62.5t64 39q70 31 148 38 t155 7h31h31q49 0 99 3t79 15q12 4 16 11q2 2 4 10t2 26q-4 47 -25.5 89.5t-55 73t-77.5 48t-93 17.5q-53 0 -99.5 -19.5t-81 -54.5t-55 -81t-20.5 -97h-246zM240 360q0 -35 14 -61.5t38.5 -44.5t55.5 -27.5t62 -9.5q18 0 42.5 4t52 15.5t58.5 34t60 59.5q25 31 45 68.5 t34 84.5q-39 -6 -78.5 -7t-78.5 -1h-31h-31q-53 0 -109.5 -3t-90.5 -19q-14 -6 -28.5 -21.5t-14.5 -71.5zM280 1511v199l12 51l500 -121v-254z" />
<glyph unicode="&#xe1;" horiz-adv-x="1075" d="M-8 762q0 100 38 190t109 162q72 72 162 109t193 37q100 0 190 -37t162 -109t109.5 -162t37.5 -190v-770h-245v112q-29 -25 -59 -45t-64 -36q-106 -51 -215 -52q-80 0 -154 27t-131 76q-63 55 -97 127.5t-34 158.5q0 72 17.5 124.5t44 90t60.5 62.5t64 39q70 31 148 38 t155 7h31h31q49 0 99 3t79 15q12 4 16 11q2 2 4 10t2 26q-4 47 -25.5 89.5t-55 73t-77.5 48t-93 17.5q-53 0 -99.5 -19.5t-81 -54.5t-55 -81t-20.5 -97h-246zM240 360q0 -35 14 -61.5t38.5 -44.5t55.5 -27.5t62 -9.5q18 0 42.5 4t52 15.5t58.5 34t60 59.5q25 31 45 68.5 t34 84.5q-39 -6 -78.5 -7t-78.5 -1h-31h-31q-53 0 -109.5 -3t-90.5 -19q-14 -6 -28.5 -21.5t-14.5 -71.5zM281 1458v193l512 137v-256l-498 -131z" />
<glyph unicode="&#xe2;" horiz-adv-x="1075" d="M-8 762q0 100 38 190t109 162q72 72 162 109t193 37q100 0 190 -37t162 -109t109.5 -162t37.5 -190v-770h-245v112q-29 -25 -59 -45t-64 -36q-106 -51 -215 -52q-80 0 -154 27t-131 76q-63 55 -97 127.5t-34 158.5q0 72 17.5 124.5t44 90t60.5 62.5t64 39q70 31 148 38 t155 7h31h31q49 0 99 3t79 15q12 4 16 11q2 2 4 10t2 26q-4 47 -25.5 89.5t-55 73t-77.5 48t-93 17.5q-53 0 -99.5 -19.5t-81 -54.5t-55 -81t-20.5 -97h-246zM240 360q0 -35 14 -61.5t38.5 -44.5t55.5 -27.5t62 -9.5q18 0 42.5 4t52 15.5t58.5 34t60 59.5q25 31 45 68.5 t34 84.5q-39 -6 -78.5 -7t-78.5 -1h-31h-31q-53 0 -109.5 -3t-90.5 -19q-14 -6 -28.5 -21.5t-14.5 -71.5zM252 1567l297 372l274 -376l-198 -146l-84 117l-97 -121z" />
<glyph unicode="&#xe3;" horiz-adv-x="1075" d="M-8 762q0 100 38 190t109 162q72 72 162 109t193 37q100 0 190 -37t162 -109t109.5 -162t37.5 -190v-770h-245v112q-29 -25 -59 -45t-64 -36q-106 -51 -215 -52q-80 0 -154 27t-131 76q-63 55 -97 127.5t-34 158.5q0 72 17.5 124.5t44 90t60.5 62.5t64 39q70 31 148 38 t155 7h31h31q49 0 99 3t79 15q12 4 16 11q2 2 4 10t2 26q-4 47 -25.5 89.5t-55 73t-77.5 48t-93 17.5q-53 0 -99.5 -19.5t-81 -54.5t-55 -81t-20.5 -97h-246zM160 1620q4 10 35 43t86 59q20 10 54 19.5t75 9.5t91 -13.5t106 -47.5q63 -43 116 -37q16 2 25.5 7t11.5 5 q-2 0 -4 -2l160 -188q-10 -8 -44 -29t-91 -33q-31 -6 -70 -6q-47 0 -107.5 15.5t-127.5 58.5q-53 35 -84 22q-10 -4 -18.5 -11t-10.5 -11l2 4zM240 360q0 -35 14 -61.5t38.5 -44.5t55.5 -27.5t62 -9.5q18 0 42.5 4t52 15.5t58.5 34t60 59.5q25 31 45 68.5t34 84.5 q-39 -6 -78.5 -7t-78.5 -1h-31h-31q-53 0 -109.5 -3t-90.5 -19q-14 -6 -28.5 -21.5t-14.5 -71.5z" />
<glyph unicode="&#xe4;" horiz-adv-x="1075" d="M-8 762q0 100 38 190t109 162q72 72 162 109t193 37q100 0 190 -37t162 -109t109.5 -162t37.5 -190v-770h-245v112q-29 -25 -59 -45t-64 -36q-106 -51 -215 -52q-80 0 -154 27t-131 76q-63 55 -97 127.5t-34 158.5q0 72 17.5 124.5t44 90t60.5 62.5t64 39q70 31 148 38 t155 7h31h31q49 0 99 3t79 15q12 4 16 11q2 2 4 10t2 26q-4 47 -25.5 89.5t-55 73t-77.5 48t-93 17.5q-53 0 -99.5 -19.5t-81 -54.5t-55 -81t-20.5 -97h-246zM179 1391v286h245v-286h-245zM240 360q0 -35 14 -61.5t38.5 -44.5t55.5 -27.5t62 -9.5q18 0 42.5 4t52 15.5 t58.5 34t60 59.5q25 31 45 68.5t34 84.5q-39 -6 -78.5 -7t-78.5 -1h-31h-31q-53 0 -109.5 -3t-90.5 -19q-14 -6 -28.5 -21.5t-14.5 -71.5zM609 1391v286h245v-286h-245z" />
<glyph unicode="&#xe5;" horiz-adv-x="1075" d="M-8 762q0 100 38 190t109 162q72 72 162 109t193 37q100 0 190 -37t162 -109t109.5 -162t37.5 -190v-770h-245v112q-29 -25 -59 -45t-64 -36q-106 -51 -215 -52q-80 0 -154 27t-131 76q-63 55 -97 127.5t-34 158.5q0 72 17.5 124.5t44 90t60.5 62.5t64 39q70 31 148 38 t155 7h31h31q49 0 99 3t79 15q12 4 16 11q2 2 4 10t2 26q-4 47 -25.5 89.5t-55 73t-77.5 48t-93 17.5q-53 0 -99.5 -19.5t-81 -54.5t-55 -81t-20.5 -97h-246zM240 360q0 -35 14 -61.5t38.5 -44.5t55.5 -27.5t62 -9.5q18 0 42.5 4t52 15.5t58.5 34t60 59.5q25 31 45 68.5 t34 84.5q-39 -6 -78.5 -7t-78.5 -1h-31h-31q-53 0 -109.5 -3t-90.5 -19q-14 -6 -28.5 -21.5t-14.5 -71.5zM272 1634q0 55 20.5 103.5t56.5 85.5t84 57.5t104 20.5q55 0 103 -20.5t85 -57.5t57.5 -85t20.5 -104q0 -55 -20.5 -103t-57.5 -84t-85 -56.5t-103 -20.5t-103.5 20.5 t-84.5 56.5t-56.5 84t-20.5 103zM518 1634q0 -18 19 -18q20 0 20 18q0 21 -20 21q-18 0 -19 -21z" />
<glyph unicode="&#xe6;" horiz-adv-x="2295" d="M-8 762q0 100 38 190t109 162q72 72 162 109t193 37q100 0 190 -37t162 -109t109.5 -162t37.5 -190v-770h-245v112q-29 -25 -59 -45t-64 -36q-106 -51 -215 -52q-80 0 -154 27t-131 76q-63 55 -97 127.5t-34 158.5q0 72 17.5 124.5t44 90t60.5 62.5t64 39q70 31 148 38 t155 7h31h31q49 0 99 3t79 15q12 4 16 11q2 2 4 10t2 26q-4 47 -25.5 89.5t-55 73t-77.5 48t-93 17.5q-53 0 -99.5 -19.5t-81 -54.5t-55 -81t-20.5 -97h-246zM240 360q0 -35 14 -61.5t38.5 -44.5t55.5 -27.5t62 -9.5q18 0 42.5 4t52 15.5t58.5 34t60 59.5q25 31 45 68.5 t34 84.5q-39 -6 -78.5 -7t-78.5 -1h-31h-31q-53 0 -109.5 -3t-90.5 -19q-14 -6 -28.5 -21.5t-14.5 -71.5zM742 635q0 125 42 238.5t122 205.5q78 86 182 138q111 53 225 53q113 0 221 -45q106 -47 183 -129q82 -84 125 -194.5t43 -233.5v-123h-889q12 -63 41.5 -117.5 t71.5 -94.5t94.5 -62.5t109.5 -22.5q86 0 160 48t117 134h266q-59 -182 -199 -301q-74 -63 -162 -95t-182 -32q-115 0 -227 51q-53 27 -98 60.5t-84 79.5q-78 90 -120 203.5t-42 238.5zM1014 791h604q-33 104 -114.5 168.5t-190.5 64.5q-98 0 -179 -65.5t-120 -167.5z" />
<glyph unicode="&#xe7;" horiz-adv-x="1218" d="M2 635q0 127 42 239.5t120 204.5q74 86 182 138q111 53 227 53q193 0 345 -127q145 -123 200 -309h-264q-43 88 -117.5 139t-163.5 51q-68 0 -127 -30.5t-103 -83t-69.5 -124t-25.5 -151.5t25.5 -150.5t69.5 -123t103.5 -83t126.5 -30.5q86 0 161 50t118 136h264 q-55 -188 -198 -305q-74 -63 -162 -95t-183 -32q-115 0 -227 51q-53 27 -98 60.5t-84 79.5q-78 90 -120 203.5t-42 238.5zM351 -369l135 136h-68l35 151l25 111l96 -21v6q8 0 44 -3t79 -17q68 -23 106 -62q66 -61 66 -151q0 -74 -52 -131q-35 -41 -92 -64q-69 -28 -155 -28 q-61 0 -120 17t-99 56z" />
<glyph unicode="&#xe8;" horiz-adv-x="1220" d="M-6 635q0 125 42 238.5t122 205.5q78 86 182 138q111 53 225 53q113 0 221 -45q106 -47 183 -129q82 -84 125 -194.5t43 -233.5v-123h-889q12 -63 41.5 -117.5t71.5 -94.5t94.5 -62.5t109.5 -22.5q86 0 160 48t117 134h266q-59 -182 -199 -301q-74 -63 -162 -95t-182 -32 q-115 0 -227 51q-53 27 -98 60.5t-84 79.5q-78 90 -120 203.5t-42 238.5zM266 791h604q-33 104 -114.5 168.5t-190.5 64.5q-98 0 -179 -65.5t-120 -167.5zM354 1511v199l12 51l500 -121v-254z" />
<glyph unicode="&#xe9;" horiz-adv-x="1220" d="M-6 635q0 125 42 238.5t122 205.5q78 86 182 138q111 53 225 53q113 0 221 -45q106 -47 183 -129q82 -84 125 -194.5t43 -233.5v-123h-889q12 -63 41.5 -117.5t71.5 -94.5t94.5 -62.5t109.5 -22.5q86 0 160 48t117 134h266q-59 -182 -199 -301q-74 -63 -162 -95t-182 -32 q-115 0 -227 51q-53 27 -98 60.5t-84 79.5q-78 90 -120 203.5t-42 238.5zM266 791h604q-33 104 -114.5 168.5t-190.5 64.5q-98 0 -179 -65.5t-120 -167.5zM354 1458v193l512 137v-256l-498 -131z" />
<glyph unicode="&#xea;" horiz-adv-x="1220" d="M-6 635q0 125 42 238.5t122 205.5q78 86 182 138q111 53 225 53q113 0 221 -45q106 -47 183 -129q82 -84 125 -194.5t43 -233.5v-123h-889q12 -63 41.5 -117.5t71.5 -94.5t94.5 -62.5t109.5 -22.5q86 0 160 48t117 134h266q-59 -182 -199 -301q-74 -63 -162 -95t-182 -32 q-115 0 -227 51q-53 27 -98 60.5t-84 79.5q-78 90 -120 203.5t-42 238.5zM266 791h604q-33 104 -114.5 168.5t-190.5 64.5q-98 0 -179 -65.5t-120 -167.5zM324 1567l297 372l274 -376l-198 -146l-84 117l-97 -121z" />
<glyph unicode="&#xeb;" horiz-adv-x="1220" d="M-6 635q0 125 42 238.5t122 205.5q78 86 182 138q111 53 225 53q113 0 221 -45q106 -47 183 -129q82 -84 125 -194.5t43 -233.5v-123h-889q12 -63 41.5 -117.5t71.5 -94.5t94.5 -62.5t109.5 -22.5q86 0 160 48t117 134h266q-59 -182 -199 -301q-74 -63 -162 -95t-182 -32 q-115 0 -227 51q-53 27 -98 60.5t-84 79.5q-78 90 -120 203.5t-42 238.5zM252 1391v286h245v-286h-245zM266 791h604q-33 104 -114.5 168.5t-190.5 64.5q-98 0 -179 -65.5t-120 -167.5zM682 1391v286h245v-286h-245z" />
<glyph unicode="&#xec;" horiz-adv-x="380" d="M-66 1511v199l13 51l499 -121v-254zM43 2v1237h246v-1237h-246z" />
<glyph unicode="&#xed;" horiz-adv-x="380" d="M-66 1458v193l512 137v-256l-497 -131zM43 2v1237h246v-1237h-246z" />
<glyph unicode="&#xee;" horiz-adv-x="380" d="M-94 1567l297 372l274 -376l-198 -146l-84 117l-97 -121zM43 2h246v1237h-246v-1237z" />
<glyph unicode="&#xef;" horiz-adv-x="380" d="M-168 1391v286h246v-286h-246zM43 2h246v1237h-246v-1237zM262 1391v286h246v-286h-246z" />
<glyph unicode="&#xf0;" horiz-adv-x="1361" d="M-2 637q0 -129 49 -246q49 -115 137 -202q90 -90 201 -136q117 -49 246 -49q131 0 248 49q111 45 200 136q88 88 138 202q49 117 49 246v18.5t-2 18.5h6q0 479 -148 762q-43 82 -92 139t-99 95t-98.5 60.5t-89.5 34.5q-68 18 -141 19q-113 0 -213 -43q-82 -35 -147.5 -88 t-106.5 -123l211 -125q20 33 55 61.5t79 47t95.5 23.5t102.5 -9q139 -37 225 -207q16 -31 31.5 -66.5t26.5 -76.5q-43 27 -82 43q-121 51 -248 51q-125 0 -246 -51q-57 -23 -107.5 -57.5t-93.5 -77.5q-86 -86 -137 -201q-49 -119 -49 -248zM244 637q0 80 30.5 151.5t83 124 t123 83t150.5 30.5t151.5 -30.5t123.5 -83t83 -124t31 -151.5t-31 -150.5t-83 -123t-123.5 -83t-151.5 -30.5t-150.5 30.5t-123 83t-83 123t-30.5 150.5z" />
<glyph unicode="&#xf1;" horiz-adv-x="1232" d="M2 0v1221h246v-66q43 35 100 62q111 53 230 53q117 0 227 -53q104 -52 182 -138q78 -92 120 -204.5t42 -239.5v-633h-246v633q0 80 -25.5 151.5t-70.5 124t-103.5 83t-125.5 30.5q-68 0 -127.5 -30.5t-104.5 -83t-70.5 -124t-25.5 -151.5h-2v-635h-246zM237 1620 q4 10 35 43t86 59q20 10 54 19.5t75 9.5t91 -13.5t106 -47.5q63 -43 116 -37q16 2 25.5 7t11.5 5q-2 0 -4 -2l160 -188q-10 -8 -44 -29t-91 -33q-31 -6 -70 -6q-47 0 -107.5 15.5t-127.5 58.5q-53 35 -84 22q-10 -4 -18.5 -11t-10.5 -11l2 4z" />
<glyph unicode="&#xf2;" horiz-adv-x="1222" d="M-2 631q0 127 42 239.5t120 204.5q78 86 182 137q111 53 229 54q117 0 228 -54q104 -51 182 -137q78 -92 120 -204.5t42 -239.5q0 -125 -42 -238.5t-120 -204.5q-41 -45 -86 -78.5t-96 -60.5q-113 -51 -228 -51q-117 0 -229 51q-51 27 -96 60.5t-86 78.5q-78 90 -120 204 t-42 239zM244 631q0 -80 25.5 -150.5t70.5 -123t104.5 -83t126.5 -30.5q68 0 126.5 30.5t103.5 83t70.5 123t25.5 150.5t-25.5 151.5t-70.5 123.5t-103.5 83t-126.5 31t-127 -31t-104 -83t-70.5 -123.5t-25.5 -151.5zM354 1511v199l12 51l500 -121v-254z" />
<glyph unicode="&#xf3;" horiz-adv-x="1222" d="M-2 631q0 127 42 239.5t120 204.5q78 86 182 137q111 53 229 54q117 0 228 -54q104 -51 182 -137q78 -92 120 -204.5t42 -239.5q0 -125 -42 -238.5t-120 -204.5q-41 -45 -86 -78.5t-96 -60.5q-113 -51 -228 -51q-117 0 -229 51q-51 27 -96 60.5t-86 78.5q-78 90 -120 204 t-42 239zM244 631q0 -80 25.5 -150.5t70.5 -123t104.5 -83t126.5 -30.5q68 0 126.5 30.5t103.5 83t70.5 123t25.5 150.5t-25.5 151.5t-70.5 123.5t-103.5 83t-126.5 31t-127 -31t-104 -83t-70.5 -123.5t-25.5 -151.5zM354 1458v193l512 137v-256l-498 -131z" />
<glyph unicode="&#xf4;" horiz-adv-x="1222" d="M-2 631q0 127 42 239.5t120 204.5q78 86 182 137q111 53 229 54q117 0 228 -54q104 -51 182 -137q78 -92 120 -204.5t42 -239.5q0 -125 -42 -238.5t-120 -204.5q-41 -45 -86 -78.5t-96 -60.5q-113 -51 -228 -51q-117 0 -229 51q-51 27 -96 60.5t-86 78.5q-78 90 -120 204 t-42 239zM244 631q0 -80 25.5 -150.5t70.5 -123t104.5 -83t126.5 -30.5q68 0 126.5 30.5t103.5 83t70.5 123t25.5 150.5t-25.5 151.5t-70.5 123.5t-103.5 83t-126.5 31t-127 -31t-104 -83t-70.5 -123.5t-25.5 -151.5zM326 1567l297 372l274 -376l-198 -146l-84 117l-97 -121 z" />
<glyph unicode="&#xf5;" horiz-adv-x="1222" d="M-2 631q0 127 42 239.5t120 204.5q78 86 182 137q111 53 229 54q117 0 228 -54q104 -51 182 -137q78 -92 120 -204.5t42 -239.5q0 -125 -42 -238.5t-120 -204.5q-41 -45 -86 -78.5t-96 -60.5q-113 -51 -228 -51q-117 0 -229 51q-51 27 -96 60.5t-86 78.5q-78 90 -120 204 t-42 239zM233 1620q4 10 35 43t86 59q20 10 54 19.5t75 9.5t91 -13.5t106 -47.5q63 -43 116 -37q16 2 25.5 7t11.5 5q-2 0 -4 -2l160 -188q-10 -8 -44 -29t-91 -33q-31 -6 -70 -6q-47 0 -107.5 15.5t-127.5 58.5q-53 35 -84 22q-10 -4 -18.5 -11t-10.5 -11l2 4zM244 631 q0 -80 25.5 -150.5t70.5 -123t104.5 -83t126.5 -30.5q68 0 126.5 30.5t103.5 83t70.5 123t25.5 150.5t-25.5 151.5t-70.5 123.5t-103.5 83t-126.5 31t-127 -31t-104 -83t-70.5 -123.5t-25.5 -151.5z" />
<glyph unicode="&#xf6;" horiz-adv-x="1222" d="M-2 631q0 127 42 239.5t120 204.5q78 86 182 137q111 53 229 54q117 0 228 -54q104 -51 182 -137q78 -92 120 -204.5t42 -239.5q0 -125 -42 -238.5t-120 -204.5q-41 -45 -86 -78.5t-96 -60.5q-113 -51 -228 -51q-117 0 -229 51q-51 27 -96 60.5t-86 78.5q-78 90 -120 204 t-42 239zM244 631q0 -80 25.5 -150.5t70.5 -123t104.5 -83t126.5 -30.5q68 0 126.5 30.5t103.5 83t70.5 123t25.5 150.5t-25.5 151.5t-70.5 123.5t-103.5 83t-126.5 31t-127 -31t-104 -83t-70.5 -123.5t-25.5 -151.5zM252 1391v286h245v-286h-245zM682 1391v286h245v-286 h-245z" />
<glyph unicode="&#xf8;" horiz-adv-x="1222" d="M-2 631q0 127 42 239.5t120 204.5q78 86 182 137q111 53 229 54q117 0 228 -54q104 -51 182 -137q78 -92 120 -204.5t42 -239.5q0 -125 -42 -238.5t-120 -204.5q-41 -45 -86 -78.5t-96 -60.5q-113 -51 -228 -51q-117 0 -229 51q-51 27 -96 60.5t-86 78.5q-78 90 -120 204 t-42 239zM244 631q0 -80 25.5 -150.5t70.5 -123t104.5 -83t126.5 -30.5q68 0 126.5 30.5t103.5 83t70.5 123t25.5 150.5t-25.5 151.5t-70.5 123.5t-103.5 83t-126.5 31t-127 -31t-104 -83t-70.5 -123.5t-25.5 -151.5zM245 -50l476 1415h275l-475 -1415h-276z" />
<glyph unicode="&#xf9;" d="M0 631v635h246v-635q0 -80 25.5 -150.5t70.5 -123t104.5 -83t126.5 -30.5q68 0 126.5 30.5t103.5 83t70.5 123t25.5 150.5v635h246v-635q0 -125 -42 -238.5t-120 -204.5q-41 -45 -86 -78.5t-96 -60.5q-113 -51 -228 -51q-117 0 -229 51q-51 27 -96 60.5t-86 78.5 q-78 90 -120 204t-42 239zM358 1511v199l12 51l500 -121v-254z" />
<glyph unicode="&#xfa;" d="M0 631v635h246v-635q0 -80 25.5 -150.5t70.5 -123t104.5 -83t126.5 -30.5q68 0 126.5 30.5t103.5 83t70.5 123t25.5 150.5v635h246v-635q0 -125 -42 -238.5t-120 -204.5q-41 -45 -86 -78.5t-96 -60.5q-113 -51 -228 -51q-117 0 -229 51q-51 27 -96 60.5t-86 78.5 q-78 90 -120 204t-42 239zM358 1458v193l512 137v-256l-498 -131z" />
<glyph unicode="&#xfb;" d="M0 631v635h246v-635q0 -80 25.5 -150.5t70.5 -123t104.5 -83t126.5 -30.5q68 0 126.5 30.5t103.5 83t70.5 123t25.5 150.5v635h246v-635q0 -125 -42 -238.5t-120 -204.5q-41 -45 -86 -78.5t-96 -60.5q-113 -51 -228 -51q-117 0 -229 51q-51 27 -96 60.5t-86 78.5 q-78 90 -120 204t-42 239zM328 1567l297 372l274 -376l-198 -146l-84 117l-97 -121z" />
<glyph unicode="&#xfc;" d="M0 631v635h246v-635q0 -80 25.5 -150.5t70.5 -123t104.5 -83t126.5 -30.5q68 0 126.5 30.5t103.5 83t70.5 123t25.5 150.5v635h246v-635q0 -125 -42 -238.5t-120 -204.5q-41 -45 -86 -78.5t-96 -60.5q-113 -51 -228 -51q-117 0 -229 51q-51 27 -96 60.5t-86 78.5 q-78 90 -120 204t-42 239zM256 1391v286h245v-286h-245zM686 1391v286h245v-286h-245z" />
<glyph unicode="&#xfd;" horiz-adv-x="1236" d="M4 70h246q0 -68 25.5 -127.5t70.5 -104.5t104.5 -70.5t127.5 -25.5t127 25.5t104 70.5t70.5 104.5t25.5 127.5v49q-23 -18 -48.5 -33.5t-51.5 -30.5q-113 -51 -227 -51q-117 0 -230 51q-51 27 -96 61t-86 79q-78 90 -120 203.5t-42 238.5v633h246v-633q0 -80 25.5 -150.5 t70.5 -123t104.5 -83t127.5 -30.5t126 30.5t103 83t70.5 123t25.5 150.5h2v639h246v-1206q0 -117 -43 -220.5t-125 -185.5t-185.5 -125t-219.5 -43q-117 0 -220.5 43t-185.5 125q-80 82 -124 185.5t-44 220.5zM362 1458v193l512 137v-256l-498 -131z" />
<glyph unicode="&#xfe;" horiz-adv-x="1150" d="M-2 -510v2265h246v-487l262 -4q113 0 223 -54q102 -51 176 -137q76 -90 116 -201.5t40 -236.5q0 -123 -40 -235.5t-116 -200.5q-78 -90 -176 -140q-104 -51 -223 -51h-262v-518h-246zM244 254h262q63 0 119.5 29.5t98.5 82t66.5 122t24.5 147.5q0 80 -24.5 149.5 t-66.5 121.5t-98.5 82t-119.5 30h-2l-260 4v-768z" />
<glyph unicode="&#xff;" horiz-adv-x="1236" d="M4 70h246q0 -68 25.5 -127.5t70.5 -104.5t104.5 -70.5t127.5 -25.5t127 25.5t104 70.5t70.5 104.5t25.5 127.5v49q-23 -18 -48.5 -33.5t-51.5 -30.5q-113 -51 -227 -51q-117 0 -230 51q-51 27 -96 61t-86 79q-78 90 -120 203.5t-42 238.5v633h246v-633q0 -80 25.5 -150.5 t70.5 -123t104.5 -83t127.5 -30.5t126 30.5t103 83t70.5 123t25.5 150.5h2v639h246v-1206q0 -117 -43 -220.5t-125 -185.5t-185.5 -125t-219.5 -43q-117 0 -220.5 43t-185.5 125q-80 82 -124 185.5t-44 220.5zM261 1391v286h245v-286h-245zM691 1391v286h245v-286h-245z" />
<glyph unicode="&#x152;" horiz-adv-x="2658" d="M0 885q0 180 59.5 343t171.5 292q113 125 258 196q154 74 322 74t319 -74q147 -72 259 -196q113 -129 172 -292t59 -343t-59.5 -342t-171.5 -291q-111 -127 -259 -197q-151 -73 -319 -73t-322 73q-145 70 -258 197q-113 129 -172 291t-59 342zM246 885q0 -135 44 -255 t120.5 -209t180 -141.5t220.5 -52.5t219.5 52.5t179 141.5t120.5 209t44 255q0 137 -44 257t-120.5 209t-179 141t-219.5 52t-220.5 -52t-180 -141t-120.5 -209t-44 -257zM1640 -8v1788l920 -4l-2 -246l-672 4v-496h674v-245h-674v-555h674v-246h-920z" />
<glyph unicode="&#x153;" horiz-adv-x="2443" d="M-2 631q0 127 42 239.5t120 204.5q78 86 182 137q111 53 229 54q117 0 228 -54q104 -51 182 -137q78 -92 120 -204.5t42 -239.5q0 -125 -42 -238.5t-120 -204.5q-41 -45 -86 -78.5t-96 -60.5q-113 -51 -228 -51q-117 0 -229 51q-51 27 -96 60.5t-86 78.5q-78 90 -120 204 t-42 239zM244 631q0 -80 25.5 -150.5t70.5 -123t104.5 -83t126.5 -30.5q68 0 126.5 30.5t103.5 83t70.5 123t25.5 150.5t-25.5 151.5t-70.5 123.5t-103.5 83t-126.5 31t-127 -31t-104 -83t-70.5 -123.5t-25.5 -151.5zM1153 635q0 125 42 238.5t122 205.5q78 86 182 138 q111 53 225 53q113 0 221 -45q106 -47 183 -129q82 -84 125 -194.5t43 -233.5v-123h-889q12 -63 41.5 -117.5t71.5 -94.5t94.5 -62.5t109.5 -22.5q86 0 160 48t117 134h266q-59 -182 -199 -301q-74 -63 -162 -95t-182 -32q-115 0 -227 51q-53 27 -98 60.5t-84 79.5 q-78 90 -120 203.5t-42 238.5zM1425 791h604q-33 104 -114.5 168.5t-190.5 64.5q-98 0 -179 -65.5t-120 -167.5z" />
<glyph unicode="&#x178;" horiz-adv-x="1183" d="M-18 1757l30 17h238l381 -713l307 713h246l18 -9l-436 -1011v-754h-246v748zM234 1862v286h245v-286h-245zM664 1862v286h245v-286h-245z" />
<glyph unicode="&#x2c6;" horiz-adv-x="661" d="M37 1567l297 372l274 -376l-198 -146l-84 117l-97 -121z" />
<glyph unicode="&#x2dc;" horiz-adv-x="849" d="M49 1620q4 10 35 43t86 59q20 10 54 19.5t75 9.5t91 -13.5t106 -47.5q63 -43 116 -37q16 2 25.5 7t11.5 5q-2 0 -4 -2l160 -188q-10 -8 -44 -29t-91 -33q-31 -6 -70 -6q-47 0 -107.5 15.5t-127.5 58.5q-53 35 -84 22q-10 -4 -18.5 -11t-10.5 -11l2 4z" />
<glyph unicode="&#x2000;" horiz-adv-x="1205" />
<glyph unicode="&#x2001;" horiz-adv-x="2410" />
<glyph unicode="&#x2002;" horiz-adv-x="1205" />
<glyph unicode="&#x2003;" horiz-adv-x="2410" />
<glyph unicode="&#x2004;" horiz-adv-x="803" />
<glyph unicode="&#x2005;" horiz-adv-x="602" />
<glyph unicode="&#x2006;" horiz-adv-x="401" />
<glyph unicode="&#x2007;" horiz-adv-x="401" />
<glyph unicode="&#x2008;" horiz-adv-x="301" />
<glyph unicode="&#x2009;" horiz-adv-x="482" />
<glyph unicode="&#x200a;" horiz-adv-x="133" />
<glyph unicode="&#x2010;" horiz-adv-x="759" d="M74 653v246h622v-246h-622z" />
<glyph unicode="&#x2011;" horiz-adv-x="759" d="M74 653v246h622v-246h-622z" />
<glyph unicode="&#x2012;" horiz-adv-x="759" d="M74 653v246h622v-246h-622z" />
<glyph unicode="&#x2013;" horiz-adv-x="1081" d="M74 653v246h930v-246h-930z" />
<glyph unicode="&#x2014;" horiz-adv-x="1527" d="M74 653v246h1380v-246h-1380z" />
<glyph unicode="&#x2018;" horiz-adv-x="370" d="M47 1167v445h246v-445h-246z" />
<glyph unicode="&#x2019;" horiz-adv-x="337" d="M47 1167v445h246v-445h-246z" />
<glyph unicode="&#x201a;" horiz-adv-x="360" d="M47 -184v444h246v-444h-246z" />
<glyph unicode="&#x201c;" horiz-adv-x="665" d="M47 1229v444h246v-444h-246zM354 1229v444h246v-444h-246z" />
<glyph unicode="&#x201d;" horiz-adv-x="677" d="M47 1229v444h246v-444h-246zM354 1229v444h246v-444h-246z" />
<glyph unicode="&#x201e;" horiz-adv-x="661" d="M47 -184v444h246v-444h-246zM354 -184v444h246v-444h-246z" />
<glyph unicode="&#x2022;" horiz-adv-x="317" d="M37 817v287h246v-287h-246z" />
<glyph unicode="&#x2026;" horiz-adv-x="1056" d="M37 -2v287h246v-287h-246zM389 -2v287h246v-287h-246zM741 -2v287h246v-287h-246z" />
<glyph unicode="&#x202f;" horiz-adv-x="482" />
<glyph unicode="&#x2039;" horiz-adv-x="843" d="M82 756l686 467v-297l-250 -170l250 -170v-297z" />
<glyph unicode="&#x203a;" horiz-adv-x="829" d="M84 285v297l250 170l-250 170v297l686 -467z" />
<glyph unicode="&#x205f;" horiz-adv-x="602" />
<glyph unicode="&#x20ac;" horiz-adv-x="1632" d="M-10 897q0 180 59.5 343t171.5 292q55 63 121 112.5t137 84.5q150 74 322 73q123 0 239.5 -41t221.5 -119q88 -68 155.5 -157.5t114.5 -196.5h-277q-80 125 -199.5 196.5t-254.5 71.5q-98 0 -188.5 -37.5t-162 -103t-123 -157t-75.5 -197.5h551v-246h-563 q12 -121 61 -226.5t124 -183t171 -121.5t205 -44q154 0 285 91t206 244h264q-35 -106 -88 -188q-72 -117 -174 -207q-102 -88 -227 -137q-129 -49 -266 -49q-172 0 -322 74q-145 68 -258 196q-113 129 -172 291t-59 342z" />
<glyph unicode="&#x2122;" horiz-adv-x="999" d="M4 1704v76h383v-76h-154v-471h-75v471h-154zM399 1233v539h86l174 -404l164 404h82v-539h-74v358l-145 -358h-51l-162 371v-371h-74z" />
<glyph unicode="&#x25fc;" horiz-adv-x="1269" d="M0 0v1270h1270v-1270h-1270z" />
<glyph unicode="&#xfb01;" horiz-adv-x="1124" d="M-2 -2v1284q0 100 37 189.5t108 160.5q72 72 162 109t189 37q205 -1 350 -146q72 -72 108.5 -161t36.5 -189h-246q0 51 -19 97t-53 80t-80 53.5t-97 19.5t-97.5 -19.5t-80 -53.5t-53 -80t-19.5 -97v-383h264v-246h-264v-655h-246zM741 1163v125h246v-125h-246zM745 2 v1053h246v-1053h-246z" />
<glyph unicode="&#xfb02;" horiz-adv-x="1323" d="M-2 -2v1284q0 100 37 189.5t108 160.5q72 72 162 109t189 37q205 -1 350 -146q72 -72 108.5 -161t36.5 -189h-246q0 51 -19 97t-53 80t-80 53.5t-97 19.5t-97.5 -19.5t-80 -53.5t-53 -80t-19.5 -97v-383h264v-246h-264v-655h-246zM741 1163v125h246v-125h-246zM1003 2 v1667h246v-1667h-246z" />
</font>
</defs>
</svg>
